<?xml version="1.0" encoding="UTF-8" standalone="no"?>
<svg
   viewBox="0 0 128 128"
   style="display:inline;enable-background:new"
   version="1.0"
   id="svg11300"
   height="128"
   width="128"
   sodipodi:docname="io.github.fastrizwaan.diction_line_icon.svg"
   xml:space="preserve"
   inkscape:version="1.4.3 (0d15f75042, 2025-12-25)"
   xmlns:inkscape="http://www.inkscape.org/namespaces/inkscape"
   xmlns:sodipodi="http://sodipodi.sourceforge.net/DTD/sodipodi-0.dtd"
   xmlns:xlink="http://www.w3.org/1999/xlink"
   xmlns="http://www.w3.org/2000/svg"
   xmlns:svg="http://www.w3.org/2000/svg"
   xmlns:rdf="http://www.w3.org/1999/02/22-rdf-syntax-ns#"
   xmlns:cc="http://creativecommons.org/ns#"
   xmlns:dc="http://purl.org/dc/elements/1.1/"><sodipodi:namedview
     id="namedview1"
     pagecolor="#ffffff"
     bordercolor="#000000"
     borderopacity="0.25"
     inkscape:showpageshadow="2"
     inkscape:pageopacity="0.0"
     inkscape:pagecheckerboard="0"
     inkscape:deskcolor="#d1d1d1"
     inkscape:zoom="1"
     inkscape:cx="72.5"
     inkscape:cy="69.5"
     inkscape:window-width="2560"
     inkscape:window-height="1371"
     inkscape:window-x="0"
     inkscape:window-y="0"
     inkscape:window-maximized="1"
     inkscape:current-layer="g995-3" /><title
     id="title4162">Adwaita Icon Template</title><defs
     id="defs3"><linearGradient
       id="linearGradient8"><stop
         id="stop6"
         offset="0"
         style="stop-color:#f6f5f4;stop-opacity:1" /><stop
         style="stop-color:#f6f5f4;stop-opacity:1"
         offset="0.99989998"
         id="stop7" /><stop
         id="stop8"
         offset="1"
         style="stop-color:#c0bfbc;stop-opacity:1" /></linearGradient><linearGradient
       id="linearGradient4"><stop
         id="stop2"
         offset="0"
         style="stop-color:#f6f5f4;stop-opacity:1" /><stop
         id="stop5"
         offset="0.33638695"
         style="stop-color:#e6e6e6;stop-opacity:1;" /><stop
         style="stop-color:#ffffff;stop-opacity:1;"
         offset="0.65971345"
         id="stop3" /><stop
         id="stop4"
         offset="1"
         style="stop-color:#ffffff;stop-opacity:1;" /></linearGradient><linearGradient
       id="linearGradient914"><stop
         id="stop908"
         offset="0"
         style="stop-color:#f6f5f4;stop-opacity:1" /><stop
         style="stop-color:#f6f5f4;stop-opacity:1"
         offset="0.5"
         id="stop910" /><stop
         id="stop912"
         offset="1"
         style="stop-color:#c0bfbc;stop-opacity:1" /></linearGradient><linearGradient
       gradientTransform="translate(-640,640)"
       gradientUnits="userSpaceOnUse"
       y2="120"
       x2="416"
       y1="120"
       x1="384"
       id="linearGradient1053-6"
       xlink:href="#linearGradient914" /><linearGradient
       inkscape:collect="always"
       xlink:href="#linearGradient142"
       id="linearGradient143"
       x1="-467.76144"
       y1="245.40065"
       x2="-191.19141"
       y2="245.40065"
       gradientUnits="userSpaceOnUse"
       gradientTransform="matrix(1.2897959,0,0,1.2897959,539.31653,343.28921)" /><linearGradient
       id="linearGradient142"
       inkscape:collect="always"><stop
         style="stop-color:#142748;stop-opacity:1"
         offset="0"
         id="stop142" /><stop
         style="stop-color:#1f293a;stop-opacity:1"
         offset="1"
         id="stop143" /></linearGradient><linearGradient
       inkscape:collect="always"
       xlink:href="#linearGradient144"
       id="linearGradient145"
       x1="-322.05173"
       y1="392.31445"
       x2="-320.58698"
       y2="355.29639"
       gradientUnits="userSpaceOnUse"
       gradientTransform="matrix(1.2897959,0,0,1.2897959,539.31653,343.28921)" /><linearGradient
       id="linearGradient144"
       inkscape:collect="always"><stop
         style="stop-color:#ede4d7;stop-opacity:1;"
         offset="0"
         id="stop144" /><stop
         style="stop-color:#b4ada5;stop-opacity:1"
         offset="1"
         id="stop145" /></linearGradient><linearGradient
       inkscape:collect="always"
       xlink:href="#linearGradient140"
       id="linearGradient141"
       x1="-419.92236"
       y1="347.29691"
       x2="-253.28459"
       y2="98.453613"
       gradientUnits="userSpaceOnUse"
       gradientTransform="matrix(1.2897959,0,0,1.2897959,539.31653,343.28921)" /><linearGradient
       id="linearGradient140"
       inkscape:collect="always"><stop
         style="stop-color:#0c468b;stop-opacity:1"
         offset="0"
         id="stop140" /><stop
         style="stop-color:#2b7fce;stop-opacity:1"
         offset="1"
         id="stop141" /></linearGradient><linearGradient
       inkscape:collect="always"
       xlink:href="#linearGradient150"
       id="linearGradient151"
       x1="-414.26172"
       y1="404.80725"
       x2="-414.26172"
       y2="370.31445"
       gradientUnits="userSpaceOnUse"
       gradientTransform="matrix(1.2897959,0,0,1.2897959,539.31653,343.28921)" /><linearGradient
       id="linearGradient150"
       inkscape:collect="always"><stop
         style="stop-color:#f3532d;stop-opacity:1"
         offset="0"
         id="stop150" /><stop
         style="stop-color:#be230d;stop-opacity:1"
         offset="1"
         id="stop151" /></linearGradient><linearGradient
       inkscape:collect="always"
       xlink:href="#linearGradient148"
       id="linearGradient149"
       x1="-467.76144"
       y1="234.27905"
       x2="-419.92233"
       y2="234.27905"
       gradientUnits="userSpaceOnUse"
       gradientTransform="matrix(1.2897959,0,0,1.2897959,539.31653,343.28921)" /><linearGradient
       id="linearGradient148"
       inkscape:collect="always"><stop
         style="stop-color:#0b274b;stop-opacity:1"
         offset="0"
         id="stop148" /><stop
         style="stop-color:#144279;stop-opacity:1"
         offset="1"
         id="stop149" /></linearGradient></defs><metadata
     id="metadata4"><rdf:RDF><cc:Work
         rdf:about=""><dc:format>image/svg+xml</dc:format><dc:type
           rdf:resource="http://purl.org/dc/dcmitype/StillImage" /><dc:creator><cc:Agent><dc:title>GNOME Design Team</dc:title></cc:Agent></dc:creator><dc:source /><cc:license
           rdf:resource="http://creativecommons.org/licenses/by-sa/4.0/" /><dc:title>Adwaita Icon Template</dc:title><dc:subject><rdf:Bag /></dc:subject><dc:date /><dc:rights><cc:Agent><dc:title /></cc:Agent></dc:rights><dc:publisher><cc:Agent><dc:title /></cc:Agent></dc:publisher><dc:identifier /><dc:relation /><dc:language /><dc:coverage /><dc:description /><dc:contributor><cc:Agent><dc:title /></cc:Agent></dc:contributor></cc:Work><cc:License
         rdf:about="http://creativecommons.org/licenses/by-sa/4.0/"><cc:permits
           rdf:resource="http://creativecommons.org/ns#Reproduction" /><cc:permits
           rdf:resource="http://creativecommons.org/ns#Distribution" /><cc:requires
           rdf:resource="http://creativecommons.org/ns#Notice" /><cc:requires
           rdf:resource="http://creativecommons.org/ns#Attribution" /><cc:permits
           rdf:resource="http://creativecommons.org/ns#DerivativeWorks" /><cc:requires
           rdf:resource="http://creativecommons.org/ns#ShareAlike" /></cc:License></rdf:RDF></metadata><g
     transform="translate(0,-172)"
     style="display:inline"
     id="layer1"><g
       style="display:inline"
       id="layer9"><g
         transform="matrix(0.25,0,0,0.25,-3.8146973e-6,231.125)"
         id="g925-5"
         style="display:inline;enable-background:new"><g
           style="display:inline;enable-background:new"
           id="g995-3"
           transform="translate(640,-640.5)"><g
             id="g1"
             transform="matrix(1.054052,0,0,1.0534625,-504.54065,-44.592749)"><path
               style="baseline-shift:baseline;display:inline;overflow:visible;vector-effect:none;fill:url(#linearGradient143);fill-opacity:1;stroke-width:1.2898;stroke-linejoin:round;stroke-miterlimit:1.4;enable-background:accumulate;stop-color:#000000"
               d="m -27.46187,460 c -10.07169,0 -19.20788,4.07872 -25.81983,10.66915 C -59.89959,477.243 -64,486.32726 -64,496.35674 V 792.42157 796 v 26.3413 0.95792 c 0,0.0866 0,0.17431 0,0.26073 v 4.93875 c 0,13.95359 10.66437,25.03861 24.91859,29.23204 1.02995,0.34351 2.07762,0.65097 3.14583,0.9031 2.70717,0.63903 5.52997,0.97683 8.43026,0.97683 h 0.57813 c 0.11015,0 0.22039,0 0.33064,0 h 281.91173 c 0.11027,0 0.22055,0 0.33064,0 h 0.49311 c 2.61126,0 5.15826,-0.27438 7.61597,-0.79547 1.12974,-0.23952 2.23651,-0.54112 3.32525,-0.88233 14.6154,-4.02416 25.63848,-15.24656 25.63848,-29.43417 v -6.1574 c 0,-0.73969 -0.0302,-1.47189 -0.0887,-2.1954 v -53.17573 c 0.0286,-0.58904 0.0435,-1.18186 0.0435,-1.77787 V 496.31329 C 292.67336,476.2686 276.29521,460 256.18246,460 Z"
               id="path125" /><path
               id="path124"
               style="baseline-shift:baseline;display:inline;overflow:visible;opacity:0.906176;vector-effect:none;fill:url(#linearGradient145);fill-opacity:1;stroke-width:1.2898;stroke-linejoin:round;stroke-miterlimit:1.4;enable-background:accumulate;stop-color:#000000"
               d="m 282.40089,790.43216 c -6.28778,7.01206 -16.57734,10.81806 -27.36533,11.11692 H 252.2771 -26.59655 c -15.63499,0 -27.08571,9.85443 -27.08571,20.79222 v 3.11178 c 0.85333,10.64123 7.98178,19.37976 17.78444,22.5985 2.86664,0.80081 5.99037,1.2432 9.30127,1.2432 h 281.91173 c 3.09194,0 6.02033,-0.38698 8.7288,-1.0901 10.71174,-3.28899 18.35691,-13.12184 18.35691,-24.90546 v -0.95792 c 0,-0.0564 7.3e-4,-0.11349 0,-0.17001 z" /><path
               style="baseline-shift:baseline;display:inline;overflow:visible;opacity:0.603625;vector-effect:none;fill:url(#linearGradient141);fill-opacity:1;stroke-width:1.2898;stroke-linejoin:round;stroke-miterlimit:1.4;enable-background:accumulate;stop-color:#000000"
               d="m -2.48279,470.27427 h 258.62172 c 14.65265,0 26.26196,11.56102 26.26196,26.08247 v 270.38482 c -0.77675,13.52046 -11.66159,24.11763 -25.40797,24.51996 -0.55697,-0.0208 -1.11613,-0.0304 -1.67774,-0.0304 H -2.29762 c -0.0555,-0.12499 -0.11776,-0.24782 -0.18517,-0.3665 z"
               id="rect64" /><path
               id="rect144"
               style="fill:url(#linearGradient151);fill-opacity:1;stroke:none;stroke-width:7.37958;stroke-linejoin:round;stroke-miterlimit:1.4;stroke-opacity:1"
               d="m -20.79247,820.91926 h 51.59184 v 56.75105 C 30.70777,877.64581 5.1936,865.52114 5.00345,865.40795 l -25.79592,12.26236 z"
               sodipodi:nodetypes="cccccc" /><path
               id="path148"
               style="baseline-shift:baseline;display:inline;overflow:visible;opacity:0.603625;vector-effect:none;fill:url(#linearGradient149);stroke-width:1.2898;stroke-linejoin:round;stroke-miterlimit:1.4;enable-background:accumulate;stop-color:#000000"
               d="m -27.46187,459.99999 c -10.07169,0 -19.20788,4.07873 -25.81983,10.66917 C -59.89959,477.243 -64,486.32726 -64,496.35674 V 792.42157 796 v 26.3413 0.95792 c 0,0.0866 0,0.17431 0,0.26073 l 0.10845,7.36143 c 0.0156,0.16779 2.33077,-14.68326 2.33077,-14.68326 3.93789,-13.8283 15.89412,-24.24974 33.75509,-24.5615 l 25.50811,-0.44529 -0.18516,-331.23134 z"
               sodipodi:nodetypes="scscccsccssccs" /><path
               style="font-weight:bold;font-size:144px;font-family:Carlito;-inkscape-font-specification:'Carlito Bold';fill:#ffffff;stroke-width:10.3184;stroke-linejoin:round;stroke-miterlimit:1.4"
               d="m 154.92269,690.30508 h -18.31914 q -3.1741,0 -5.07856,-1.45104 -1.90447,-1.54169 -2.81136,-3.80889 l -7.61785,-23.66976 H 76.74897 l -7.52718,23.57904 q -0.72551,1.9952 -2.81134,3.71825 -1.99516,1.6324 -4.98789,1.6324 H 42.83137 l 43.89337,-120.4347 h 24.30459 z M 82.09961,644.68862 h 33.55484 L 103.41147,606.5993 q -1.08826,-2.81129 -2.26723,-6.52954 -1.17895,-3.80897 -2.3579,-8.25267 -1.08827,4.4437 -2.26722,8.25267 -1.17896,3.80889 -2.17652,6.62026 z m 144.46721,45.61646 q -3.26479,0 -4.98789,-0.90688 -1.72307,-0.9976 -2.72065,-3.89961 l -1.99516,-5.98546 q -3.44617,2.99273 -6.62028,5.25994 -3.17411,2.2672 -6.62027,3.80889 -3.35549,1.54176 -7.25511,2.26728 -3.80893,0.81617 -8.52475,0.81617 -5.80408,0 -10.61058,-1.54169 -4.8065,-1.6324 -8.34337,-4.71585 -3.44616,-3.08337 -5.35064,-7.61786 -1.90446,-4.62514 -1.90446,-10.6106 0,-4.98786 2.53929,-9.97571 2.53928,-4.98794 8.61543,-8.97819 6.16684,-4.08105 16.32398,-6.71098 10.24783,-2.72065 25.48354,-3.08345 v -4.8065 q 0,-8.7061 -3.62755,-12.78708 -3.62755,-4.08105 -10.42921,-4.08105 -5.07857,0 -8.43405,1.17897 -3.2648,1.17896 -5.80408,2.63 -2.53929,1.36033 -4.71582,2.53929 -2.17653,1.17896 -4.89719,1.17896 -2.35791,0 -4.081,-1.17896 -1.63239,-1.26968 -2.62997,-2.99273 l -4.17168,-7.25514 q 7.79923,-7.25507 17.23086,-10.79195 9.43163,-3.53682 20.40497,-3.53682 7.88993,0 14.14745,2.62993 6.25754,2.53929 10.6106,7.25514 4.35306,4.62514 6.62027,11.06404 2.26722,6.4389 2.26722,14.1474 v 56.6805 z m -31.55969,-14.32884 q 6.16684,0 10.61058,-2.17649 4.53444,-2.26728 8.97819,-6.89234 V 652.3972 q -8.97819,0.36272 -14.96364,1.54169 -5.89477,1.08824 -9.43163,2.90201 -3.53687,1.72312 -5.07858,4.08105 -1.45102,2.35785 -1.45102,5.07857 0,5.4413 2.99273,7.70851 3.08343,2.26721 8.34337,2.26721 z"
               id="text153"
               aria-label="Aa" /></g></g></g></g></g></svg>
