<?xml version="1.0" encoding="UTF-8" standalone="no"?>
<svg
   version="1.0"
   height="128"
   width="128"
   id="svg21"
   sodipodi:docname="io.github.fastrizwaan.ViTE2.svg"
   inkscape:version="1.4.3 (0d15f75042, 2025-12-25)"
   xml:space="preserve"
   xmlns:inkscape="http://www.inkscape.org/namespaces/inkscape"
   xmlns:sodipodi="http://sodipodi.sourceforge.net/DTD/sodipodi-0.dtd"
   xmlns:xlink="http://www.w3.org/1999/xlink"
   xmlns="http://www.w3.org/2000/svg"
   xmlns:svg="http://www.w3.org/2000/svg"><sodipodi:namedview
     id="namedview21"
     pagecolor="#ffffff"
     bordercolor="#000000"
     borderopacity="0.25"
     inkscape:showpageshadow="2"
     inkscape:pageopacity="0.0"
     inkscape:pagecheckerboard="0"
     inkscape:deskcolor="#d1d1d1"
     inkscape:zoom="2"
     inkscape:cx="115.75"
     inkscape:cy="66.75"
     inkscape:window-width="1280"
     inkscape:window-height="1371"
     inkscape:window-x="20"
     inkscape:window-y="20"
     inkscape:window-maximized="0"
     inkscape:current-layer="g29" /><defs
     id="defs11"><linearGradient
       id="linearGradient27"><stop
         offset="0.3198736"
         stop-color="#c0bfbc"
         id="stop22" /><stop
         offset="0.68496948"
         stop-color="#fff"
         id="stop23" /><stop
         offset="1"
         stop-color="#fff"
         id="stop26" /><stop
         offset="1"
         stop-color="#c0bfbc"
         id="stop27"
         style="stop-color:#ffffff;stop-opacity:1;" /></linearGradient><linearGradient
       id="a"><stop
         offset="0"
         stop-color="#c0bfbc"
         id="stop1" /><stop
         offset="0"
         stop-color="#fff"
         id="stop2" /><stop
         offset=".1"
         stop-color="#deddda"
         id="stop3" /><stop
         offset=".9"
         stop-color="#deddda"
         id="stop4" /><stop
         offset="1"
         stop-color="#fff"
         id="stop5" /><stop
         offset="1"
         stop-color="#c0bfbc"
         id="stop6" /></linearGradient><linearGradient
       id="b"><stop
         offset="0"
         stop-color="#d0bb8e"
         id="stop7" /><stop
         offset="1"
         stop-color="#fff"
         id="stop8" /></linearGradient><linearGradient
       id="c"><stop
         offset="0"
         stop-color="#d5d3cf"
         id="stop9" /><stop
         offset="1"
         stop-color="#fff"
         id="stop10" /></linearGradient><linearGradient
       gradientTransform="translate(-7.5624918,-50.499991)"
       gradientUnits="userSpaceOnUse"
       y2="-276"
       x2="116"
       y1="-276"
       x1="28"
       id="e"
       xlink:href="#a" /><linearGradient
       gradientTransform="matrix(.07621 -.4442 .4442 -.07621 78 332)"
       y2="-127.4"
       x2="158.5"
       y1="-97.7"
       x1="128.8"
       gradientUnits="userSpaceOnUse"
       id="i"
       xlink:href="#b" /><linearGradient
       y2="72"
       x2="340"
       y1="76"
       x1="344"
       gradientTransform="matrix(0.25,0,0,0.25,180,83)"
       gradientUnits="userSpaceOnUse"
       id="g"
       xlink:href="#c" /><clipPath
       id="d"
       clipPathUnits="userSpaceOnUse"><rect
         ry="8"
         rx="8"
         y="-188"
         x="160"
         height="56"
         width="16"
         style="marker:none"
         fill="none"
         stroke="#000"
         id="rect10" /></clipPath><clipPath
       id="f"
       clipPathUnits="userSpaceOnUse"><path
         d="m252 116 28-28v-8h-36v36z"
         fill="#e74747"
         stroke-width=".3"
         id="path10" /></clipPath><clipPath
       id="h"
       clipPathUnits="userSpaceOnUse"><rect
         transform="scale(-1)"
         style="marker:none"
         width="88"
         height="108"
         x="-108"
         y="-116"
         rx="8"
         ry="8"
         fill="#f6f5f4"
         stroke-width="13.7"
         id="rect11" /></clipPath><linearGradient
       inkscape:collect="always"
       xlink:href="#b"
       id="linearGradient29"
       x1="9.6049948"
       y1="44.25568"
       x2="41.644665"
       y2="45.398392"
       gradientUnits="userSpaceOnUse" /><linearGradient
       inkscape:collect="always"
       xlink:href="#e-3"
       id="linearGradient31"
       x1="50.608078"
       y1="253.67256"
       x2="0.0046176501"
       y2="253.67256"
       gradientUnits="userSpaceOnUse" /><linearGradient
       id="g-7"
       gradientTransform="matrix(-1.8192518,-0.26520936,-0.31255232,2.1440095,-285.83434,598.13956)"
       x1="-253.63036"
       x2="-230.06013"
       xlink:href="#e-3"
       y1="-56.517502"
       y2="-56.517502" /><linearGradient
       id="e-3"
       gradientUnits="userSpaceOnUse"><stop
         offset="0"
         stop-color="#fc9a91"
         id="stop9-6" /><stop
         offset="1"
         stop-color="#cb2b31"
         id="stop10-5" /></linearGradient><linearGradient
       inkscape:collect="always"
       xlink:href="#linearGradient27"
       id="linearGradient12"
       x1="-0.17724131"
       y1="231.59209"
       x2="50.729805"
       y2="231.61368"
       gradientUnits="userSpaceOnUse" /><linearGradient
       inkscape:collect="always"
       xlink:href="#linearGradient66"
       id="linearGradient24-2"
       x1="-428.18362"
       y1="264.6701"
       x2="-467.76111"
       y2="264.6701"
       gradientUnits="userSpaceOnUse"
       gradientTransform="matrix(0.36194858,0,0,0.359107,411.30547,-183.49477)" /><linearGradient
       id="linearGradient66"
       inkscape:collect="always"><stop
         style="stop-color:#716b60;stop-opacity:1;"
         offset="0"
         id="stop65" /><stop
         style="stop-color:#998d86;stop-opacity:1;"
         offset="1"
         id="stop66" /></linearGradient><linearGradient
       inkscape:collect="always"
       xlink:href="#linearGradient40"
       id="linearGradient27-9"
       x1="-305.30161"
       y1="355.29639"
       x2="-305.30161"
       y2="392.31445"
       gradientUnits="userSpaceOnUse"
       gradientTransform="matrix(0.37306048,0,0,0.36194858,416.4144,-183.7519)" /><linearGradient
       id="linearGradient40"
       inkscape:collect="always"><stop
         style="stop-color:#ede4d7;stop-opacity:1;"
         offset="0"
         id="stop39" /><stop
         style="stop-color:#ffffff;stop-opacity:1;"
         offset="1"
         id="stop40" /></linearGradient><linearGradient
       inkscape:collect="always"
       xlink:href="#linearGradient64"
       id="linearGradient33-0"
       x1="-453.29691"
       y1="145.03894"
       x2="-204.57356"
       y2="147.50597"
       gradientUnits="userSpaceOnUse"
       gradientTransform="matrix(0.34478122,0,0,0.3598559,412.62458,-172.58041)" /><linearGradient
       id="linearGradient64"
       inkscape:collect="always"><stop
         style="stop-color:#78695f;stop-opacity:1;"
         offset="0"
         id="stop63" /><stop
         style="stop-color:#82736a;stop-opacity:1;"
         offset="1"
         id="stop64" /></linearGradient><linearGradient
       inkscape:collect="always"
       xlink:href="#linearGradient150"
       id="linearGradient151"
       x1="-414.26172"
       y1="404.80725"
       x2="-414.26172"
       y2="370.31445"
       gradientUnits="userSpaceOnUse"
       gradientTransform="matrix(0.36194858,0,0,0.36194858,411.30558,-191.7519)" /><linearGradient
       id="linearGradient150"
       inkscape:collect="always"><stop
         style="stop-color:#f3532d;stop-opacity:1"
         offset="0"
         id="stop150" /><stop
         style="stop-color:#be230d;stop-opacity:1"
         offset="1"
         id="stop151" /></linearGradient><linearGradient
       inkscape:collect="always"
       xlink:href="#b"
       id="linearGradient37"
       gradientUnits="userSpaceOnUse"
       x1="9.6049948"
       y1="44.25568"
       x2="41.644665"
       y2="45.398392" /><linearGradient
       inkscape:collect="always"
       xlink:href="#e-3"
       id="linearGradient38"
       gradientUnits="userSpaceOnUse"
       x1="50.608078"
       y1="253.67256"
       x2="0.0046176501"
       y2="253.67256"
       gradientTransform="matrix(0.67809669,9.6218629e-5,9.6218632e-5,0.62215703,45.113196,83.182291)" /><linearGradient
       inkscape:collect="always"
       xlink:href="#linearGradient27"
       id="linearGradient39"
       gradientUnits="userSpaceOnUse"
       x1="-0.17724131"
       y1="231.59209"
       x2="50.729805"
       y2="231.61368"
       gradientTransform="matrix(0.67809781,-5.5368396e-4,-5.5368396e-4,0.99999905,45.260026,-2.1842223)" /></defs><g
     transform="matrix(1.0227274,0,0,1,130.9645,-221.75)"
     id="g21"><rect
       transform="scale(-1)"
       style="fill:url(#e);marker:none"
       width="88"
       height="40"
       x="20.437508"
       y="-342.5"
       rx="8"
       ry="8"
       fill="url(#e)"
       id="rect13" /></g><g
     id="g39"
     transform="matrix(-0.37002124,-0.27586445,0.27586445,-0.37002124,51.3018,116.61515)"><g
       id="g32"
       transform="matrix(0.88597765,0,0,0.88597765,2.8954845,1.1628738)"><g
         id="g24"
         transform="translate(-229.42563,183.24667)"><rect
           style="opacity:1;fill:#f6f5f4;fill-opacity:1;stroke:none;stroke-width:1.22276;stroke-linejoin:round;stroke-miterlimit:1.4;stroke-dasharray:none"
           id="rect1"
           width="220.09628"
           height="273.89758"
           x="-368.02228"
           y="-255.88907"
           transform="rotate(143.29412)"
           ry="13.373905" /><path
           style="opacity:1;fill:#b50000;fill-opacity:1;stroke:#c4846b;stroke-width:0.978206;stroke-linejoin:round;stroke-miterlimit:1.4;stroke-dasharray:none;stroke-opacity:1"
           d="M 416.23372,8.8598551 253.61938,-209.25734"
           id="path1" /><path
           style="opacity:1;fill:#5d6b7c;fill-opacity:1;stroke:#93bcdc;stroke-width:0.978206;stroke-linejoin:round;stroke-miterlimit:1.4;stroke-dasharray:none;stroke-opacity:1"
           d="M 424.60831,-46.189386 248.15399,85.363802"
           id="path2" /><path
           style="opacity:1;fill:#5d6b7c;fill-opacity:1;stroke:#93bcdc;stroke-width:0.978206;stroke-linejoin:round;stroke-miterlimit:1.4;stroke-dasharray:none;stroke-opacity:1"
           d="M 412.91471,-61.874214 236.46039,69.678974"
           id="path11" /><path
           style="opacity:1;fill:#5d6b7c;fill-opacity:1;stroke:#93bcdc;stroke-width:0.978206;stroke-linejoin:round;stroke-miterlimit:1.4;stroke-dasharray:none;stroke-opacity:1"
           d="M 401.22111,-77.559042 224.76679,53.994146"
           id="path12" /><path
           style="opacity:1;fill:#5d6b7c;fill-opacity:1;stroke:#93bcdc;stroke-width:0.978206;stroke-linejoin:round;stroke-miterlimit:1.4;stroke-dasharray:none;stroke-opacity:1"
           d="M 389.52751,-93.24387 213.07319,38.309318"
           id="path13" /><path
           style="opacity:1;fill:#5d6b7c;fill-opacity:1;stroke:#93bcdc;stroke-width:0.978206;stroke-linejoin:round;stroke-miterlimit:1.4;stroke-dasharray:none;stroke-opacity:1"
           d="M 377.83391,-108.9287 201.37959,22.62449"
           id="path16" /><path
           style="opacity:1;fill:#5d6b7c;fill-opacity:1;stroke:#93bcdc;stroke-width:0.978206;stroke-linejoin:round;stroke-miterlimit:1.4;stroke-dasharray:none;stroke-opacity:1"
           d="M 366.14031,-124.61354 189.68599,6.9396617"
           id="path17" /><path
           style="opacity:1;fill:#5d6b7c;fill-opacity:1;stroke:#93bcdc;stroke-width:0.978206;stroke-linejoin:round;stroke-miterlimit:1.4;stroke-dasharray:none;stroke-opacity:1"
           d="M 354.44671,-140.29838 177.99239,-8.7451674"
           id="path18" /><path
           style="opacity:1;fill:#5d6b7c;fill-opacity:1;stroke:#93bcdc;stroke-width:0.978206;stroke-linejoin:round;stroke-miterlimit:1.4;stroke-dasharray:none;stroke-opacity:1"
           d="M 342.75311,-155.98322 166.29879,-24.429996"
           id="path19" /><path
           style="opacity:1;fill:#5d6b7c;fill-opacity:1;stroke:#93bcdc;stroke-width:0.978206;stroke-linejoin:round;stroke-miterlimit:1.4;stroke-dasharray:none;stroke-opacity:1"
           d="M 331.05951,-171.66806 154.60519,-40.114824"
           id="path20" /><path
           style="opacity:1;fill:#5d6b7c;fill-opacity:1;stroke:#93bcdc;stroke-width:0.978206;stroke-linejoin:round;stroke-miterlimit:1.4;stroke-dasharray:none;stroke-opacity:1"
           d="M 319.36591,-187.3529 142.91159,-55.799652"
           id="path21" /><path
           style="opacity:1;fill:#5d6b7c;fill-opacity:1;stroke:#93bcdc;stroke-width:0.978206;stroke-linejoin:round;stroke-miterlimit:1.4;stroke-dasharray:none;stroke-opacity:1"
           d="M 307.67231,-203.03774 131.21799,-71.48448"
           id="path23" /><path
           style="opacity:1;fill:#5d6b7c;fill-opacity:1;stroke:#93bcdc;stroke-width:0.978206;stroke-linejoin:round;stroke-miterlimit:1.4;stroke-dasharray:none;stroke-opacity:1"
           d="M 295.97871,-218.72258 119.52439,-87.169308"
           id="path24" /></g><g
         id="g25"><g
           id="g35"
           transform="translate(2.171006e-6)"><path
             style="fill:#e27879;stroke-width:0.997683"
             d="M 0.00461765,226.01879 H 50.608078 v 27.65377 c 0,8.46234 -6.436051,15.32241 -14.375609,15.32241 H 14.380227 c -7.9395588,0 -14.37560935,-6.86007 -14.37560935,-15.32241 z"
             id="path30" /><polygon
             style="fill:url(#linearGradient29)"
             points="50.721,80.047 0,80.047 0,65.003 25.36,10.224 50.721,65.003 "
             id="polygon30" /><polygon
             style="fill:#a47d73"
             points="36.565,34.425 25.36,10.224 14.156,34.425 "
             id="polygon32" /><polygon
             style="fill:#68514a"
             points="25.36,10.224 14.156,34.425 25.36,34.425 "
             id="polygon33" /><rect
             y="65.002998"
             style="fill:#f8e45c;stroke-width:1.04092"
             width="50.721001"
             height="163.57799"
             id="rect33"
             x="0" /><rect
             y="64.892143"
             style="fill:#f6d32d;stroke-width:0.847842"
             width="16.821829"
             height="163.60541"
             id="rect34"
             x="-51.015381"
             transform="matrix(-0.99999631,-0.00271764,-0.00180237,0.99999838,0,0)" /><rect
             y="64.974838"
             style="fill:#f9f06b;stroke-width:0.847842"
             width="16.821829"
             height="163.60541"
             id="rect35"
             x="-17.233816"
             transform="matrix(-0.99999631,-0.00271764,-0.00180237,0.99999838,0,0)" /><path
             style="fill:#f6f5f4;stroke-width:0.466924"
             d="m -0.17724131,228.5593 50.89524031,0.0432 0.02361,6.02235 c -1.6e-4,-0.0408 -50.89524113,-0.0432 -50.89524113,-0.0432 z"
             id="path35"
             sodipodi:nodetypes="ccccc" /></g><path
           style="fill:url(#linearGradient31);stroke-width:0.997683"
           d="M 0.00461765,226.01879 H 50.608078 v 27.65377 c 0,8.46234 -6.436051,15.32241 -14.375609,15.32241 H 14.380227 c -7.9395588,0 -14.37560935,-6.86007 -14.37560935,-15.32241 z"
           id="path36" /><polygon
           style="fill:#424048;fill-opacity:1"
           points="14.156,34.425 36.565,34.425 25.36,10.224 "
           id="polygon37"
           transform="matrix(-0.99999765,-0.00216734,-0.00216734,0.99999765,50.795051,0.05504569)" /><rect
           y="65.002998"
           style="fill:#8c7d75;fill-opacity:1;stroke-width:1.04092"
           width="50.721001"
           height="163.57799"
           id="rect37"
           x="0" /><rect
           y="64.892143"
           style="fill:#a19791;fill-opacity:1;stroke-width:0.847842"
           width="16.821829"
           height="163.60541"
           id="rect38"
           x="-51.015381"
           transform="matrix(-0.99999631,-0.00271764,-0.00180237,0.99999838,0,0)" /><rect
           y="64.974838"
           style="fill:#726359;fill-opacity:1;stroke-width:0.847842"
           width="16.821829"
           height="163.60541"
           id="rect39"
           x="-17.233816"
           transform="matrix(-0.99999631,-0.00271764,-0.00180237,0.99999838,0,0)" /><path
           style="fill:url(#linearGradient12);stroke-width:0.466924"
           d="m -0.17724131,228.5593 50.89524031,0.0432 0.02361,6.02235 c -1.6e-4,-0.0408 -50.89524113,-0.0432 -50.89524113,-0.0432 z"
           id="path39"
           sodipodi:nodetypes="ccccc" /></g><g
         id="g37"
         transform="rotate(-36.804435,168.13347,587.56027)"><g
           id="g29"
           transform="matrix(0.67809781,-5.5368396e-4,-5.5368396e-4,0.99999905,-76.921752,3.7584867)"><polygon
             style="fill:url(#linearGradient37)"
             points="0,65.003 25.36,10.224 50.721,65.003 50.721,80.047 0,80.047 "
             id="polygon25"
             transform="matrix(0.99794608,2.9390609e-4,2.9390609e-4,0.8270747,180.25125,4.9696335)" /></g><path
           style="fill:url(#linearGradient38);stroke-width:0.64802"
           d="m 45.138076,223.80147 34.31404,0.005 -0.006,22.09601 c -0.001,5.2649 -4.36279,9.53229 -9.74658,9.53156 l -14.81793,-0.002 c -5.38379,-0.001 -9.75089,-4.26943 -9.74953,-9.53433 z"
           id="path31"
           sodipodi:nodetypes="ccsscsc" /><polygon
           style="fill:#424048;fill-opacity:1"
           points="14.156,34.425 36.565,34.425 25.36,10.224 "
           id="polygon31"
           transform="matrix(-0.7259911,-0.00163003,-0.00179097,0.85243996,80.891506,8.4037474)" /><rect
           y="62.855679"
           style="fill:#8c7d75;fill-opacity:1;stroke-width:0.857163"
           width="34.39381"
           height="163.57785"
           id="rect31"
           x="45.258858"
           transform="matrix(0.99999967,-8.1652494e-4,-5.536844e-4,0.99999985,0,0)" /><rect
           y="62.563492"
           style="fill:#a19791;fill-opacity:1;stroke-width:0.69817"
           width="11.406836"
           height="163.60541"
           id="rect32"
           x="-79.84951"
           transform="matrix(-0.99999491,-0.00319122,-0.00177587,0.99999842,0,0)" /><rect
           y="62.646187"
           style="fill:#726359;fill-opacity:1;stroke-width:0.69817"
           width="11.406836"
           height="163.60541"
           id="rect36"
           x="-56.942333"
           transform="matrix(-0.99999491,-0.00319122,-0.00177587,0.99999842,0,0)" /><path
           style="fill:url(#linearGradient39);stroke-width:0.384496"
           d="m 45.013296,226.37496 34.51192,0.015 0.0127,6.02233 c -8e-5,-0.0408 -34.51193,-0.015 -34.51193,-0.015 z"
           id="path37"
           sodipodi:nodetypes="ccccc" /></g></g></g><path
     style="baseline-shift:baseline;display:inline;overflow:visible;vector-effect:none;fill:#71655d;fill-opacity:1;stroke-width:0.361949;stroke-linejoin:round;stroke-miterlimit:1.4;enable-background:accumulate;stop-color:#000000"
     d="m 252.25357,-148.99997 c -2.82639,0 -5.39021,1.14459 -7.2457,2.99403 -1.85712,1.84478 -3.00779,4.39405 -3.00779,7.20857 v 81.083113 1.00419 7.392021 0.268813 c 0,0.02432 -1.8e-4,0.04892 0,0.07314 v 9.385936 c 0,3.915708 2.99269,7.026455 6.99277,8.203222 0.28901,0.0964 0.58303,0.18268 0.88279,0.253442 0.75969,0.179325 1.55186,0.27411 2.36573,0.27411 h 0.16223 c 0.0308,2.16e-4 0.0618,3.58e-4 0.0928,3.58e-4 h 77.11138 c 0.031,0 0.0619,-3.02e-4 0.0928,-3.58e-4 h 0.13839 c 0.73279,0 1.44753,-0.077 2.13723,-0.223217 0.31703,-0.0672 0.62762,-0.151861 0.93314,-0.247607 4.10145,-1.129294 7.1948,-4.278571 7.1948,-8.25995 v -9.727913 c 0,-0.20759 -0.008,-0.41306 -0.0249,-0.616087 V -64.85659 c 0.008,-0.165301 0.0122,-0.331658 0.0122,-0.498919 v -73.454051 c 0,-5.62504 -4.59611,-10.19041 -10.24024,-10.19041 z"
     id="path125-3"
     sodipodi:nodetypes="scscccscscsscsscsscssccssss" /><path
     id="path148-7"
     style="baseline-shift:baseline;display:inline;overflow:visible;vector-effect:none;fill:url(#linearGradient24-2);fill-opacity:1;stroke-width:0.360525;stroke-linejoin:round;stroke-miterlimit:1.4;enable-background:accumulate;stop-color:#000000"
     d="m 252.25357,-148.99997 c -2.82639,1e-5 -5.39021,1.13561 -7.2457,2.97053 -1.85712,1.8303 -3.00779,4.35955 -3.00779,7.15197 v 72.493652 0.996306 7.33399 0.266703 c 0,0.02413 -1.8e-4,0.04853 0,0.07256 l 0.0304,2.049577 c 0.004,0.04666 0.65403,-4.088131 0.65403,-4.088131 1.10511,-3.850095 4.4603,-6.751663 9.47253,-6.838464 l 7.1582,-0.123963 -0.052,-82.28476 z"
     sodipodi:nodetypes="scscccsccssccs" /><path
     id="path124-5"
     style="baseline-shift:baseline;display:inline;overflow:visible;vector-effect:none;fill:url(#linearGradient27-9);fill-opacity:1;stroke-width:0.367463;stroke-linejoin:round;stroke-miterlimit:1.4;enable-background:accumulate;stop-color:#000000"
     d="m 340.09146,-66.941754 c -3.14772,2.73052 -4.11884,3.329751 -8.70031,3.788886 h -78.6614 c -4.52228,0 -7.83427,2.765395 -7.83427,5.834824 v 16.873227 c 0.24682,2.98618 2.30865,5.438438 5.14399,6.341708 0.82912,0.224715 1.73264,0.348867 2.69028,0.348867 h 79.54013 c 0.89431,0 1.74132,-0.108602 2.52472,-0.305928 3.09826,-0.922958 5.30955,-3.682303 5.30955,-6.989067 v -16.268807 c 0,-0.01583 1.8e-4,-0.03186 0,-0.04769 z"
     sodipodi:nodetypes="ccssccsscsscc" /><path
     style="baseline-shift:baseline;display:inline;overflow:visible;opacity:0.991833;vector-effect:none;fill:url(#linearGradient33-0);stroke-width:0.36687;stroke-linejoin:round;stroke-miterlimit:1.4;enable-background:accumulate;stop-color:#000000"
     d="m 256.37137,-148.99997 h 73.84937 c 4.30822,0 9.88341,3.47759 9.88341,10.17055 v 64.580575 c -0.0118,4.055088 -6.6845,7.878139 -9.90947,7.9584 -3.22499,0.08022 -73.77135,-0.135461 -73.77135,-0.135461 -0.0155,-0.03603 -0.0331,-0.0715 -0.0521,-0.105679 -0.0642,-12.906626 -0.0642,-33.753115 0,-82.468385 z"
     id="rect64-9"
     sodipodi:nodetypes="cssczcccc" /><path
     id="rect144"
     style="display:inline;fill:url(#linearGradient151);fill-opacity:1;stroke:none;stroke-width:2.07089;stroke-linejoin:round;stroke-miterlimit:1.4;stroke-opacity:1;enable-background:new"
     d="m 254.12517,-57.717108 h 14.47794 v 15.925727 c -0.0257,-0.0066 -7.18561,-3.409352 -7.23897,-3.441114 l -7.23897,3.441114 z"
     sodipodi:nodetypes="cccccc" /><path
     id="path48"
     style="baseline-shift:baseline;display:inline;overflow:visible;opacity:0.603625;vector-effect:none;fill:#ffffff;fill-opacity:0.402819;stroke-width:0.263124;stroke-linejoin:round;stroke-miterlimit:1.4;enable-background:accumulate;stop-color:#000000"
     d="m 250.55989,-131.9295 c -2.35952,0 -4.49985,0.72457 -6.04886,1.89535 -1.55035,1.16783 -2.51095,2.78162 -2.51095,4.56333 v 47.530846 0.635696 4.679469 0.17017 c 0,0.01539 -1.5e-4,0.03096 0,0.0463 l 0.0254,1.307738 c 0.003,0.02976 0.546,-2.608442 0.546,-2.608442 0.92257,-2.456562 3.72354,-4.307914 7.90786,-4.363298 l 89.61215,-0.07909 -0.0433,-53.778079 z"
     sodipodi:nodetypes="scscccsccssccs" /><text
     xml:space="preserve"
     style="font-weight:bold;font-size:46.8223px;font-family:STIX;-inkscape-font-specification:'STIX Bold';writing-mode:lr-tb;direction:ltr;fill:#544b45;fill-opacity:1;stroke-width:1.24371;stroke-linejoin:round;stroke-miterlimit:1.4"
     x="264.52167"
     y="-90.903999"
     id="text66"><tspan
       sodipodi:role="line"
       id="tspan66"
       style="font-style:normal;font-variant:normal;font-weight:600;font-stretch:normal;font-family:STIX;-inkscape-font-specification:'STIX Semi-Bold';fill:#544b45;fill-opacity:1;stroke-width:1.24371"
       x="264.52167"
       y="-90.903999">Aa</tspan></text></svg>
