<?xml version="1.0" encoding="UTF-8" standalone="no"?>
<svg
   viewBox="0 0 128 128"
   style="display:inline;enable-background:new"
   version="1.0"
   id="svg11300"
   height="128"
   width="128"
   sodipodi:docname="io.github.fastrizwaan.diction14.svg"
   inkscape:version="1.4.3 (0d15f75042, 2025-12-25)"
   xml:space="preserve"
   xmlns:inkscape="http://www.inkscape.org/namespaces/inkscape"
   xmlns:sodipodi="http://sodipodi.sourceforge.net/DTD/sodipodi-0.dtd"
   xmlns:xlink="http://www.w3.org/1999/xlink"
   xmlns="http://www.w3.org/2000/svg"
   xmlns:svg="http://www.w3.org/2000/svg"
   xmlns:rdf="http://www.w3.org/1999/02/22-rdf-syntax-ns#"
   xmlns:cc="http://creativecommons.org/ns#"
   xmlns:dc="http://purl.org/dc/elements/1.1/"><sodipodi:namedview
     id="namedview1"
     pagecolor="#ffffff"
     bordercolor="#000000"
     borderopacity="0.25"
     inkscape:showpageshadow="2"
     inkscape:pageopacity="0.0"
     inkscape:pagecheckerboard="0"
     inkscape:deskcolor="#d1d1d1"
     inkscape:zoom="4"
     inkscape:cx="80.75"
     inkscape:cy="76.125"
     inkscape:window-width="2560"
     inkscape:window-height="1371"
     inkscape:window-x="0"
     inkscape:window-y="0"
     inkscape:window-maximized="1"
     inkscape:current-layer="g7" /><title
     id="title4162">Adwaita Icon Template</title><defs
     id="defs3"><linearGradient
       id="linearGradient78"
       inkscape:collect="always"><stop
         style="stop-color:#cdab8f;stop-opacity:1"
         offset="0"
         id="stop78" /><stop
         style="stop-color:#cdab8f;stop-opacity:1"
         offset="1"
         id="stop79" /></linearGradient><linearGradient
       id="linearGradient34"
       inkscape:collect="always"><stop
         style="stop-color:#be936f;stop-opacity:1"
         offset="0"
         id="stop33" /><stop
         style="stop-color:#be936f;stop-opacity:1"
         offset="1"
         id="stop34" /></linearGradient><linearGradient
       id="linearGradient914"><stop
         id="stop908"
         offset="0"
         style="stop-color:#f6f5f4;stop-opacity:1" /><stop
         style="stop-color:#f6f5f4;stop-opacity:1"
         offset="0.5"
         id="stop910" /><stop
         id="stop912"
         offset="1"
         style="stop-color:#c0bfbc;stop-opacity:1" /></linearGradient><linearGradient
       gradientTransform="matrix(1,0,0,0.88315221,-640,628.31524)"
       gradientUnits="userSpaceOnUse"
       y2="120"
       x2="416"
       y1="120"
       x1="384"
       id="linearGradient1053-6"
       xlink:href="#linearGradient914" /><linearGradient
       inkscape:collect="always"
       xlink:href="#linearGradient150"
       id="linearGradient151"
       x1="-414.26172"
       y1="404.80725"
       x2="-414.26172"
       y2="370.31445"
       gradientUnits="userSpaceOnUse"
       gradientTransform="translate(-13.345394,-36.043773)" /><linearGradient
       id="linearGradient150"
       inkscape:collect="always"><stop
         style="stop-color:#f3532d;stop-opacity:1"
         offset="0"
         id="stop150" /><stop
         style="stop-color:#be230d;stop-opacity:1"
         offset="1"
         id="stop151" /></linearGradient><linearGradient
       inkscape:collect="always"
       xlink:href="#linearGradient34"
       id="linearGradient24"
       x1="-467.76144"
       y1="219.77423"
       x2="-439.9892"
       y2="219.77423"
       gradientUnits="userSpaceOnUse"
       gradientTransform="translate(-13.345714,-30.518126)" /><linearGradient
       id="linearGradient144"
       inkscape:collect="always"><stop
         style="stop-color:#ede4d7;stop-opacity:1;"
         offset="0"
         id="stop144" /><stop
         style="stop-color:#b4ada5;stop-opacity:1"
         offset="1"
         id="stop145" /></linearGradient><linearGradient
       inkscape:collect="always"
       xlink:href="#linearGradient144"
       id="linearGradient36"
       x1="-437.33337"
       y1="164.26566"
       x2="-326.81015"
       y2="164.26566"
       gradientUnits="userSpaceOnUse" /><linearGradient
       inkscape:collect="always"
       xlink:href="#linearGradient78"
       id="linearGradient79"
       x1="-439.06064"
       y1="188.58703"
       x2="-210.06246"
       y2="188.58703"
       gradientUnits="userSpaceOnUse"
       gradientTransform="matrix(1.0878817,0,0,1.0013442,24.310537,-0.08060921)" /></defs><metadata
     id="metadata4"><rdf:RDF><cc:Work
         rdf:about=""><dc:format>image/svg+xml</dc:format><dc:type
           rdf:resource="http://purl.org/dc/dcmitype/StillImage" /><dc:creator><cc:Agent><dc:title>GNOME Design Team</dc:title></cc:Agent></dc:creator><dc:source /><cc:license
           rdf:resource="http://creativecommons.org/licenses/by-sa/4.0/" /><dc:title>Adwaita Icon Template</dc:title><dc:subject><rdf:Bag /></dc:subject><dc:date /><dc:rights><cc:Agent><dc:title /></cc:Agent></dc:rights><dc:publisher><cc:Agent><dc:title /></cc:Agent></dc:publisher><dc:identifier /><dc:relation /><dc:language /><dc:coverage /><dc:description /><dc:contributor><cc:Agent><dc:title /></cc:Agent></dc:contributor></cc:Work><cc:License
         rdf:about="http://creativecommons.org/licenses/by-sa/4.0/"><cc:permits
           rdf:resource="http://creativecommons.org/ns#Reproduction" /><cc:permits
           rdf:resource="http://creativecommons.org/ns#Distribution" /><cc:requires
           rdf:resource="http://creativecommons.org/ns#Notice" /><cc:requires
           rdf:resource="http://creativecommons.org/ns#Attribution" /><cc:permits
           rdf:resource="http://creativecommons.org/ns#DerivativeWorks" /><cc:requires
           rdf:resource="http://creativecommons.org/ns#ShareAlike" /></cc:License></rdf:RDF></metadata><g
     id="g7"
     transform="matrix(0.36194858,0,0,0.36194858,188.08387,-13.572438)"><path
       style="baseline-shift:baseline;display:inline;overflow:visible;opacity:1;vector-effect:none;fill:#c49d7c;fill-opacity:1;stroke-linejoin:round;stroke-miterlimit:1.4;enable-background:accumulate;stop-color:#000000;stop-opacity:1"
       d="m -452.778,59.969667 c -7.8088,0 -14.8922,3.162308 -20.0186,8.271973 -5.1309,5.096814 -8.31,12.139994 -8.31,19.916014 v 229.543946 2.77441 20.42285 0.74268 c 0,0.0671 -5e-4,0.13513 0,0.20215 v 3.8291 c 0,10.81841 8.2683,19.41286 19.3198,22.66406 0.7985,0.26633 1.6108,0.5047 2.439,0.7002 2.0989,0.49545 4.2875,0.75732 6.5361,0.75732 h 0.4482 c 0.085,6.2e-4 0.1709,10e-4 0.2564,10e-4 h 218.57079 c 0.0855,0 0.171,-8.4e-4 0.25635,-10e-4 h 0.38232 c 2.02455,0 3.99928,-0.21273 5.90479,-0.6167 0.8759,-0.18569 1.734,-0.41957 2.57812,-0.68408 11.33156,-3.12005 19.87793,-11.82095 19.87793,-22.8208 v -4.77393 c 0,-0.57353 -0.0234,-1.1412 -0.0688,-1.70215 v -41.22802 c 0.0222,-0.45669 0.0337,-0.91631 0.0337,-1.37842 V 88.123964 c 0,-15.54098 -12.69824,-28.154297 -28.29199,-28.154297 z"
       id="path125" /><path
       id="path148"
       style="baseline-shift:baseline;display:inline;overflow:visible;opacity:0.603625;vector-effect:none;fill:url(#linearGradient24);fill-opacity:1;stroke-width:1;stroke-linejoin:round;stroke-miterlimit:1.4;enable-background:accumulate;stop-color:#000000;stop-opacity:1"
       d="m -452.778,59.969664 c -7.8088,0 -14.8922,3.16231 -20.0186,8.27198 -5.1309,5.09681 -8.31,12.13999 -8.31,19.91601 v 229.543946 2.77441 20.42285 0.74268 c 0,0.0671 -5e-4,0.13513 0,0.20215 l 0.084,5.70742 c 0.012,0.13006 1.807,-11.38416 1.807,-11.38416 3.0532,-10.7213 12.323,-18.80124 26.1709,-19.04296 l 19.77685,-0.34521 -0.14356,-256.809116 z"
       sodipodi:nodetypes="scscccsccssccs" /><path
       id="path124"
       style="baseline-shift:baseline;display:inline;overflow:visible;opacity:1;vector-effect:none;fill:#f6f5f4;fill-opacity:1;stroke-linejoin:round;stroke-miterlimit:1.4;enable-background:accumulate;stop-color:#000000;stop-opacity:1"
       d="m -212.53631,316.15912 c -4.87502,5.43659 -12.85268,8.38748 -21.21679,8.61914 h -2.13868 -216.21532 c -12.1221,0 -21,7.64031 -21,16.1206 v 2.4126 c 0.6616,8.25029 6.1884,15.02543 13.7886,17.521 2.2225,0.62086 4.6444,0.96386 7.2114,0.96386 h 218.57079 c 2.39724,0 4.66766,-0.30003 6.76758,-0.84521 8.30499,-2.54997 14.23242,-10.17356 14.23242,-19.30957 v -0.74268 c 0,-0.0438 4.8e-4,-0.088 0,-0.13183 z" /><path
       style="baseline-shift:baseline;display:inline;overflow:visible;opacity:0.991833;vector-effect:none;fill:url(#linearGradient79);fill-opacity:1;stroke-width:1.04222;stroke-linejoin:round;stroke-miterlimit:1.4;enable-background:accumulate;stop-color:#000000;stop-opacity:1"
       d="m -453.19559,59.969667 h 220.2799 c 12.51182,0 28.70316,9.66384 28.70316,28.26283 V 295.3849 c -0.0342,11.26866 -19.41293,21.89249 -28.77885,22.11554 -9.36593,0.22305 -220.05332,-0.37645 -220.05332,-0.37645 -0.0452,-0.10003 -0.096,-0.19858 -0.15089,-0.29367 -0.18645,-35.86609 -0.18645,-121.4863 0,-256.860653 z"
       id="rect64"
       sodipodi:nodetypes="cssczccc" /><path
       id="rect144"
       style="opacity:1;fill:url(#linearGradient151);fill-opacity:1;stroke:none;stroke-width:5.72151;stroke-linejoin:round;stroke-miterlimit:1.4;stroke-opacity:1"
       d="m -447.6071,334.27067 h 39.99999 v 44 c -0.071,-0.019 -19.85257,-9.41944 -20,-9.50721 l -19.99999,9.50721 z"
       sodipodi:nodetypes="cccccc" /><g
       id="g9"
       transform="matrix(1.1659104,0,0,1.1659104,102.63962,-2.7591136)"
       style="fill:url(#linearGradient36)" /><text
       xml:space="preserve"
       style="font-style:normal;font-variant:normal;font-weight:bold;font-stretch:normal;font-size:113.97px;font-family:'Geologica Roman';-inkscape-font-specification:'Geologica Roman,  Bold';writing-mode:lr-tb;direction:ltr;opacity:1;fill:#ffffff;fill-opacity:1;stroke:none;stroke-width:3.02733;stroke-linejoin:round;stroke-miterlimit:1.4;stroke-dasharray:none;stroke-opacity:1"
       x="-402.28467"
       y="225.85721"
       id="text85"><tspan
         sodipodi:role="line"
         id="tspan85"
         style="font-style:normal;font-variant:normal;font-weight:bold;font-stretch:normal;font-family:STIX;-inkscape-font-specification:'STIX Bold';fill:#ffffff;fill-opacity:1;stroke-width:3.02733"
         x="-402.28467"
         y="225.85721">Aa</tspan></text><text
       xml:space="preserve"
       style="font-style:normal;font-variant:normal;font-weight:normal;font-stretch:normal;font-size:176.821px;font-family:STIX;-inkscape-font-specification:STIX;writing-mode:lr-tb;direction:ltr;opacity:1;fill:#ffffff;fill-opacity:1;stroke:none;stroke-width:4.6968;stroke-linejoin:round;stroke-miterlimit:1.4;stroke-dasharray:none;stroke-opacity:1"
       x="-158.058"
       y="181.16507"
       id="text86"><tspan
         sodipodi:role="line"
         id="tspan86"
         style="stroke-width:4.6968"></tspan></text></g></svg>
