<?xml version="1.0" encoding="UTF-8" standalone="no"?>
<svg
   height="128px"
   viewBox="0 0 128 128"
   width="128px"
   version="1.1"
   id="svg35"
   sodipodi:docname="io.github.fastrizwaan.diction.svg"
   inkscape:version="1.4.3 (0d15f75042, 2025-12-25)"
   xmlns:inkscape="http://www.inkscape.org/namespaces/inkscape"
   xmlns:sodipodi="http://sodipodi.sourceforge.net/DTD/sodipodi-0.dtd"
   xmlns:xlink="http://www.w3.org/1999/xlink"
   xmlns="http://www.w3.org/2000/svg"
   xmlns:svg="http://www.w3.org/2000/svg">
  <defs
     id="defs35">
    <linearGradient
       id="linearGradient47"
       inkscape:collect="always">
      <stop
         style="stop-color:#2b62a8;stop-opacity:1;"
         offset="0"
         id="stop46" />
      <stop
         style="stop-color:#2f66ac;stop-opacity:1;"
         offset="1"
         id="stop47" />
    </linearGradient>
    <linearGradient
       id="linearGradient34"
       inkscape:collect="always">
      <stop
         style="stop-color:#2b62a8;stop-opacity:1"
         offset="0"
         id="stop33" />
      <stop
         style="stop-color:#73aae7;stop-opacity:1;"
         offset="1"
         id="stop34" />
    </linearGradient>
    <linearGradient
       id="linearGradient40"
       inkscape:collect="always">
      <stop
         style="stop-color:#ede4d7;stop-opacity:1;"
         offset="0"
         id="stop39" />
      <stop
         style="stop-color:#ffffff;stop-opacity:1;"
         offset="1"
         id="stop40" />
    </linearGradient>
    <linearGradient
       id="linearGradient150"
       inkscape:collect="always">
      <stop
         style="stop-color:#f3532d;stop-opacity:1"
         offset="0"
         id="stop150" />
      <stop
         style="stop-color:#be230d;stop-opacity:1"
         offset="1"
         id="stop151" />
    </linearGradient>
    <linearGradient
       inkscape:collect="always"
       xlink:href="#linearGradient34"
       id="linearGradient24-2"
       x1="-428.18362"
       y1="264.6701"
       x2="-467.76111"
       y2="264.6701"
       gradientUnits="userSpaceOnUse"
       gradientTransform="matrix(0.36232553,0,0,0.38102484,300.13244,-39.618966)" />
    <linearGradient
       inkscape:collect="always"
       xlink:href="#linearGradient40"
       id="linearGradient27-9"
       x1="-305.30161"
       y1="355.29639"
       x2="-305.30161"
       y2="392.31445"
       gradientUnits="userSpaceOnUse"
       gradientTransform="matrix(0.373449,0,0,0.38403986,305.24669,-39.891788)" />
    <linearGradient
       inkscape:collect="always"
       xlink:href="#linearGradient47"
       id="linearGradient33-0"
       x1="-453.29691"
       y1="145.03894"
       x2="-204.57356"
       y2="147.50597"
       gradientUnits="userSpaceOnUse"
       gradientTransform="matrix(0.34514029,0,0,0.38181945,301.45293,-28.038452)" />
    <linearGradient
       inkscape:collect="always"
       xlink:href="#linearGradient150"
       id="linearGradient151"
       x1="-414.26172"
       y1="404.80725"
       x2="-414.26172"
       y2="370.31445"
       gradientUnits="userSpaceOnUse"
       gradientTransform="matrix(0.36232553,0,0,0.38403986,300.13255,-48.380064)" />
    <linearGradient
       inkscape:collect="always"
       xlink:href="#linearGradient40"
       id="linearGradient53"
       x1="180.21257"
       y1="57.753731"
       x2="180.21257"
       y2="29.417704"
       gradientUnits="userSpaceOnUse"
       gradientTransform="matrix(0.66485919,0,0,0.66485919,44.00863,13.98148)" />
  </defs>
  <sodipodi:namedview
     id="namedview35"
     pagecolor="#ffffff"
     bordercolor="#000000"
     borderopacity="0.25"
     inkscape:showpageshadow="2"
     inkscape:pageopacity="0.0"
     inkscape:pagecheckerboard="0"
     inkscape:deskcolor="#d1d1d1"
     inkscape:zoom="11.313708"
     inkscape:cx="76.986251"
     inkscape:cy="53.430756"
     inkscape:window-width="2560"
     inkscape:window-height="1371"
     inkscape:window-x="0"
     inkscape:window-y="0"
     inkscape:window-maximized="1"
     inkscape:current-layer="g48" />
  <linearGradient
     id="a"
     gradientUnits="userSpaceOnUse"
     x1="100"
     x2="108"
     y1="83"
     y2="83">
    <stop
       offset="0"
       stop-color="#f6f5f4"
       id="stop1" />
    <stop
       offset="0.5"
       stop-color="#f6f5f4"
       id="stop2" />
    <stop
       offset="1"
       stop-color="#c0bfbc"
       id="stop3" />
  </linearGradient>
  <linearGradient
     id="b"
     gradientUnits="userSpaceOnUse"
     x1="20"
     x2="108"
     y1="54"
     y2="54">
    <stop
       offset="0"
       stop-color="#3584e4"
       id="stop4" />
    <stop
       offset="0.0227273"
       stop-color="#62a0ea"
       id="stop5" />
    <stop
       offset="0.0909091"
       stop-color="#3584e4"
       id="stop6" />
    <stop
       offset="1"
       stop-color="#3584e4"
       id="stop7" />
  </linearGradient>
  <linearGradient
     id="c"
     gradientUnits="userSpaceOnUse"
     x1="20"
     x2="108.099617"
     y1="49"
     y2="49">
    <stop
       offset="0"
       stop-color="#62a0ea"
       id="stop8" />
    <stop
       offset="0.0227273"
       stop-color="#8bb9f0"
       id="stop9" />
    <stop
       offset="0.0909091"
       stop-color="#62a0ea"
       id="stop10" />
    <stop
       offset="1"
       stop-color="#62a0ea"
       id="stop11" />
  </linearGradient>
  <filter
     id="d"
     height="1"
     width="1"
     x="0"
     y="0">
    <feColorMatrix
       in="SourceGraphic"
       type="matrix"
       values="0 0 0 0 1 0 0 0 0 1 0 0 0 0 1 0 0 0 1 0"
       id="feColorMatrix11" />
  </filter>
  <mask
     id="e">
    <g
       filter="url(#d)"
       id="g11">
      <rect
         fill-opacity="0.1"
         height="128"
         width="128"
         id="rect11" />
    </g>
  </mask>
  <linearGradient
     id="f"
     gradientUnits="userSpaceOnUse">
    <stop
       offset="0"
       stop-opacity="0"
       id="stop12" />
    <stop
       offset="0.2"
       id="stop13" />
    <stop
       offset="0.8"
       stop-opacity="0.94902"
       id="stop14" />
    <stop
       offset="1"
       stop-opacity="0"
       id="stop15" />
  </linearGradient>
  <linearGradient
     id="g"
     gradientTransform="matrix(1.372549 0 0 1 -19.647058 -154)"
     x1="42"
     x2="93"
     xlink:href="#f"
     y1="273"
     y2="273" />
  <clipPath
     id="h">
    <rect
       height="152"
       width="192"
       id="rect15" />
  </clipPath>
  <mask
     id="i">
    <g
       filter="url(#d)"
       id="g16">
      <rect
         fill-opacity="0.1"
         height="128"
         width="128"
         id="rect16" />
    </g>
  </mask>
  <linearGradient
     id="j"
     gradientTransform="matrix(1.45098 0 0 1 -26.941177 -150)"
     x1="42"
     x2="93"
     xlink:href="#f"
     y1="273"
     y2="273" />
  <clipPath
     id="k">
    <rect
       height="152"
       width="192"
       id="rect17" />
  </clipPath>
  <mask
     id="l">
    <g
       filter="url(#d)"
       id="g18">
      <rect
         fill-opacity="0.1"
         height="128"
         width="128"
         id="rect18" />
    </g>
  </mask>
  <linearGradient
     id="m"
     gradientTransform="matrix(1.176471 0 0 1 -1.411765 -146)"
     x1="42"
     x2="93"
     xlink:href="#f"
     y1="273"
     y2="273" />
  <clipPath
     id="n">
    <rect
       height="152"
       width="192"
       id="rect19" />
  </clipPath>
  <mask
     id="o">
    <g
       filter="url(#d)"
       id="g20">
      <rect
         fill-opacity="0.1"
         height="128"
         width="128"
         id="rect20" />
    </g>
  </mask>
  <linearGradient
     id="p"
     gradientTransform="matrix(0.745098 0 0 1 18.705883 -158)"
     x1="42"
     x2="93"
     xlink:href="#f"
     y1="273"
     y2="273" />
  <clipPath
     id="q">
    <rect
       height="152"
       width="192"
       id="rect21" />
  </clipPath>
  <linearGradient
     id="r"
     gradientUnits="userSpaceOnUse"
     x1="46"
     x2="46"
     y1="108"
     y2="102"
     gradientTransform="translate(297.66134,139.49754)"
     xlink:href="#linearGradient34">
    <stop
       offset="0"
       stop-color="#ed333b"
       id="stop21" />
    <stop
       offset="1"
       stop-color="#c01c28"
       id="stop22" />
  </linearGradient>
  <g
     id="g36">
    <g
       id="g43"
       transform="matrix(1.1363636,0,0,1.0353982,-154.60762,-61.546876)">
      <g
         id="g42">
        <g
           id="g35"
           transform="matrix(0.87908452,0,0,0.9102552,35.851962,68.325983)">
          <g
             id="g48"
             transform="translate(0,-0.44884925)">
            <path
               style="baseline-shift:baseline;display:inline;overflow:visible;vector-effect:none;fill:#2b62a8;fill-opacity:1;stroke-width:0.373025;stroke-linejoin:round;stroke-miterlimit:1.4;enable-background:accumulate;stop-color:#000000"
               d="m 140.9149,-5.1408684 c -2.82933,0 -5.39582,1.214452 -7.25325,3.176767 -1.85905,1.95737967 -3.01092,4.6622407 -3.01092,7.6485422 v 88.1540302 1.06548 7.843189 0.28522 c 0,0.0258 -1.8e-4,0.0519 0,0.0776 v 9.9588 c 0,4.1547 2.99581,7.45531 7.00005,8.7039 0.28932,0.10228 0.58364,0.19383 0.88371,0.26891 0.76049,0.19027 1.55348,0.29084 2.3682,0.29084 h 0.1624 c 0.0308,2.3e-4 0.0619,3.8e-4 0.0929,3.8e-4 h 79.19377 c 0.031,0 0.062,-3.2e-4 0.0929,-3.8e-4 h 0.13853 c 0.73355,0 1.44904,-0.0817 2.13946,-0.23684 0.31736,-0.0713 0.62827,-0.16113 0.93411,-0.26272 4.10572,-1.19822 7.20229,-4.53971 7.20229,-8.76409 v -10.32165 c 0,-0.22026 -0.008,-0.43827 -0.0249,-0.65369 V 86.260211 c 0.008,-0.17539 0.0122,-0.3519 0.0122,-0.52937 V 5.6715028 c 0,-5.96835553 -4.6009,-10.8123712 -10.25091,-10.8123712 z"
               id="path125-3"
               sodipodi:nodetypes="scscccscscsscsscsscssccssss" />
            <path
               id="path148-7"
               style="baseline-shift:baseline;display:inline;overflow:visible;opacity:0.603625;vector-effect:none;fill:url(#linearGradient24-2);fill-opacity:1;stroke-width:0.371558;stroke-linejoin:round;stroke-miterlimit:1.4;enable-background:accumulate;stop-color:#000000"
               d="m 140.9149,-5.1408704 c -2.82933,0 -5.39582,1.204918 -7.25325,3.151829 -1.85905,1.94201227 -3.01092,4.625638 -3.01092,7.5884946 v 79.0403168 1.057115 7.781614 0.282981 c 0,0.0256 -1.8e-4,0.05149 0,0.07699 l 0.0304,2.174672 c 0.004,0.04951 0.65472,-4.337647 0.65472,-4.337647 1.10626,-4.085083 4.46494,-7.163747 9.48239,-7.255845 l 7.16566,-0.131529 -0.052,-89.4290224 z"
               sodipodi:nodetypes="scscccsccssccs" />
            <path
               id="path124-5"
               style="baseline-shift:baseline;display:inline;overflow:visible;vector-effect:none;fill:url(#linearGradient27-9);fill-opacity:1;stroke-width:0.378708;stroke-linejoin:round;stroke-miterlimit:1.4;enable-background:accumulate;stop-color:#000000"
               d="m 230.85905,84.757817 c -1.82058,2.087872 -4.79983,3.221132 -7.92339,3.310102 h -0.79868 -80.7454 c -4.52699,0 -7.84243,2.934178 -7.84243,6.190948 v 17.903073 c 0.24707,3.16844 2.31105,5.77037 5.14934,6.72877 0.82999,0.23843 1.73445,0.37016 2.69309,0.37016 h 81.62504 c 0.89524,0 1.74314,-0.11523 2.52735,-0.3246 3.10149,-0.97929 5.31508,-3.90705 5.31508,-7.41564 V 94.258867 c 0,-0.0168 1.8e-4,-0.0338 0,-0.0506 z"
               sodipodi:nodetypes="cccssccsscsscc" />
            <path
               style="baseline-shift:baseline;display:inline;overflow:visible;opacity:0.991833;vector-effect:none;fill:url(#linearGradient33-0);stroke-width:0.378097;stroke-linejoin:round;stroke-miterlimit:1.4;enable-background:accumulate;stop-color:#000000"
               d="m 145.03699,-5.1408684 h 75.92836 c 4.31271,0 9.8937,3.6898421 9.8937,10.7912983 V 76.294706 c -0.0118,4.302588 -6.69146,8.358976 -9.91979,8.444136 -3.22835,0.08512 -75.85026,-0.143729 -75.85026,-0.143729 -0.0155,-0.03823 -0.0331,-0.07586 -0.0521,-0.112129 -0.0643,-13.694373 -0.0643,-37.935284 0,-89.6238524 z"
               id="rect64-9"
               sodipodi:nodetypes="cssczcccc" />
            <path
               id="rect144"
               style="display:inline;fill:url(#linearGradient151);fill-opacity:1;stroke:none;stroke-width:2.13426;stroke-linejoin:round;stroke-miterlimit:1.4;stroke-opacity:1;enable-background:new"
               d="m 142.78845,93.835446 h 14.49302 v 16.897744 c -0.0257,-0.007 -7.1931,-3.61744 -7.24651,-3.65114 l -7.24651,3.65114 z"
               sodipodi:nodetypes="cccccc" />
            <path
               id="path48"
               style="baseline-shift:baseline;display:inline;overflow:visible;opacity:0.603625;vector-effect:none;fill:#ffffff;fill-opacity:0.40281904;stroke-width:0.271176;stroke-linejoin:round;stroke-miterlimit:1.4;enable-background:accumulate;stop-color:#000000"
               d="m 139.21946,15.093549 c -2.36198,1e-6 -4.50454,0.768801 -6.05516,2.011032 -1.55197,1.239106 -2.51357,2.951399 -2.51357,4.841856 v 50.431855 0.674495 4.965077 0.180556 c 0,0.01633 -1.5e-4,0.03285 0,0.04913 l 0.0254,1.387555 c 0.003,0.03158 0.54657,-2.767646 0.54657,-2.767646 0.92353,-2.606497 3.72742,-4.570845 7.91609,-4.629609 l 91.70756,-0.08392 -0.0434,-57.060392 z"
               sodipodi:nodetypes="scscccsccssccs" />
            <path
               d="m 151.2749,52.010696 c 5.71771,0 10.38147,-2.081563 10.38147,-8.958626 0,-6.92976 -5.21708,-8.352601 -10.48686,-8.352601 h -7.58849 v 1.21205 c 1.84443,0 2.45045,0.210791 2.45045,2.160609 v 10.328769 c 0,2.16061 -0.28984,2.476797 -2.45045,2.476797 v 1.133002 z m -0.13174,-1.501887 c -0.36889,0 -0.79047,0 -1.21205,-0.02635 V 36.227705 c 0.44793,-0.02635 0.71142,-0.02635 1.02761,-0.02635 4.45296,0 6.53452,2.555843 6.53452,7.140551 0,5.849456 -2.39775,7.166901 -6.35008,7.166901 z m 19.97249,1.501887 V 50.95674 c -1.76538,0 -2.02887,-0.395233 -2.02887,-1.923469 v -9.722744 h -1.84442 l -3.95234,0.737769 v 1.106654 c 0,0 0.31619,-0.0527 0.68507,-0.0527 0.79047,0 1.3438,0.105395 1.3438,1.291096 v 6.718969 c 0,1.501888 -0.28984,1.844423 -2.00252,1.844423 v 1.053956 z m -4.00504,-14.36015 c 1.39649,0 2.13426,-0.816816 2.13426,-2.081563 0,-1.212049 -0.73777,-2.028865 -2.13426,-2.028865 -1.34379,0 -2.10791,0.816816 -2.10791,2.055214 0,1.238398 0.79047,2.055214 2.10791,2.055214 z m 16.33633,9.907186 c -1.00126,1.264748 -2.00251,1.92347 -3.79424,1.92347 -2.81933,0 -3.5571,-1.659981 -3.5571,-4.690104 0,-2.792984 0.63237,-4.32122 2.23966,-4.32122 2.39775,0 1.15935,3.346311 3.6098,3.346311 1.00125,0 1.89712,-0.553327 1.89712,-1.712679 0,-1.633632 -1.79173,-2.898379 -4.82185,-2.898379 -4.55836,0 -6.69262,2.87203 -6.69262,6.850714 0,4.110428 2.266,6.244689 5.9285,6.244689 3.53075,0 4.7955,-2.002516 5.8758,-4.321219 z m 10.51324,1.501888 c -0.63238,0.526978 -1.08031,0.869513 -2.10792,0.869513 -1.00125,0 -1.31744,-0.500629 -1.31744,-2.424098 v -6.218341 h 3.29361 v -1.607283 h -3.29361 v -3.873288 h -1.55459 c -1.05395,2.213308 -2.39775,3.478055 -3.87328,4.373917 v 1.106654 h 1.65998 v 7.140552 c 0,3.030124 1.0276,3.952335 3.08282,3.952335 2.76663,0 3.68884,-1.159352 4.76915,-2.582192 z m 8.93227,2.951076 V 50.95674 c -1.76538,0 -2.02886,-0.395233 -2.02886,-1.923469 v -9.722744 h -1.84443 l -3.95233,0.737769 v 1.106654 c 0,0 0.31618,-0.0527 0.68507,-0.0527 0.79047,0 1.34379,0.105395 1.34379,1.291096 v 6.718969 c 0,1.501888 -0.28983,1.844423 -2.00251,1.844423 v 1.053956 z m -4.00503,-14.36015 c 1.39649,0 2.13426,-0.816816 2.13426,-2.081563 0,-1.212049 -0.73777,-2.028865 -2.13426,-2.028865 -1.3438,0 -2.10791,0.816816 -2.10791,2.055214 0,1.238398 0.79046,2.055214 2.10791,2.055214 z m 11.61988,14.623639 c 4.13677,0 6.37643,-2.371401 6.37643,-6.877062 0,-3.794242 -2.08156,-6.165643 -6.29739,-6.165643 -4.42661,0 -6.45548,2.766634 -6.45548,6.45548 0,4.584709 2.23966,6.587225 6.37644,6.587225 z m 0.079,-1.291096 c -1.71268,0 -2.45045,-1.791725 -2.45045,-5.559618 0,-3.003774 0.55333,-4.927244 2.23966,-4.927244 1.73903,0 2.50315,1.818074 2.50315,5.111687 0,3.636148 -0.55333,5.375175 -2.29236,5.375175 z m 23.68767,1.027607 V 50.95674 c -1.52823,0 -1.81807,-0.447931 -1.81807,-1.89712 v -4.690105 c 0,-3.478054 -1.60728,-5.138035 -4.37392,-5.138035 -1.58093,0 -2.71393,0.922211 -4.05773,2.239656 h -0.10539 v -2.160609 h -1.44919 l -4.05773,0.764118 v 1.080305 c 0,0 0.26349,-0.0527 0.71142,-0.0527 0.73777,0 1.0803,0.210791 1.0803,1.1857 v 6.771668 c 0,1.449189 -0.079,1.89712 -1.81807,1.89712 v 1.053956 h 7.48309 V 50.95674 c -1.73903,0 -1.87078,-0.447931 -1.87078,-1.89712 v -6.165643 c 0.76412,-0.632374 1.47554,-1.133003 2.55585,-1.133003 1.39649,0 2.13426,0.711421 2.13426,3.188217 v 4.110429 c 0,1.475538 -0.18444,1.89712 -1.73903,1.89712 v 1.053956 z"
               id="text52"
               style="font-weight:bold;font-size:26.3489px;font-family:STIX;-inkscape-font-specification:'STIX Bold';fill:url(#linearGradient53);stroke-width:0.699891;stroke-linejoin:round;stroke-miterlimit:1.4"
               transform="scale(0.97131767,1.0295293)"
               aria-label="Diction" />
          </g>
        </g>
      </g>
    </g>
  </g>
</svg>
