<?xml version="1.0" encoding="UTF-8" standalone="no"?>
<svg
   height="512pt"
   version="1.1"
   viewBox="0 0 512 512"
   width="512pt"
   id="svg63"
   sodipodi:docname="io.github.fastrizwaan.diction3.svg"
   xml:space="preserve"
   inkscape:version="1.4.3 (0d15f75042, 2025-12-25)"
   xmlns:inkscape="http://www.inkscape.org/namespaces/inkscape"
   xmlns:sodipodi="http://sodipodi.sourceforge.net/DTD/sodipodi-0.dtd"
   xmlns:xlink="http://www.w3.org/1999/xlink"
   xmlns="http://www.w3.org/2000/svg"
   xmlns:svg="http://www.w3.org/2000/svg"><defs
     id="defs63"><linearGradient
       id="linearGradient1"
       inkscape:collect="always"><stop
         style="stop-color:#082749;stop-opacity:1"
         offset="0"
         id="stop1" /><stop
         style="stop-color:#114586;stop-opacity:1;"
         offset="0.24097767"
         id="stop3" /><stop
         style="stop-color:#0b325f;stop-opacity:1"
         offset="1"
         id="stop2" /></linearGradient><linearGradient
       id="linearGradient150"
       inkscape:collect="always"><stop
         style="stop-color:#f3532d;stop-opacity:1"
         offset="0"
         id="stop150" /><stop
         style="stop-color:#be230d;stop-opacity:1"
         offset="1"
         id="stop151" /></linearGradient><linearGradient
       id="linearGradient144"
       inkscape:collect="always"><stop
         style="stop-color:#ffffff;stop-opacity:1"
         offset="0"
         id="stop144" /><stop
         style="stop-color:#eae3d3;stop-opacity:1"
         offset="1"
         id="stop145" /></linearGradient><linearGradient
       id="linearGradient142"
       inkscape:collect="always"><stop
         style="stop-color:#142748;stop-opacity:1"
         offset="0"
         id="stop142" /><stop
         style="stop-color:#1f293a;stop-opacity:1"
         offset="1"
         id="stop143" /></linearGradient><linearGradient
       inkscape:collect="always"
       xlink:href="#linearGradient140"
       id="linearGradient141"
       x1="-289.62582"
       y1="98.453613"
       x2="-294.26614"
       y2="347.31897"
       gradientUnits="userSpaceOnUse"
       gradientTransform="matrix(1.0360585,0,0,1.02943,1.801549,-41.38144)" /><linearGradient
       inkscape:collect="always"
       xlink:href="#linearGradient142"
       id="linearGradient143"
       x1="-467.76144"
       y1="245.40065"
       x2="-191.19141"
       y2="245.40065"
       gradientUnits="userSpaceOnUse" /><linearGradient
       inkscape:collect="always"
       xlink:href="#linearGradient144"
       id="linearGradient145"
       x1="-322.05173"
       y1="392.31445"
       x2="-320.58698"
       y2="355.29639"
       gradientUnits="userSpaceOnUse" /><linearGradient
       inkscape:collect="always"
       xlink:href="#linearGradient150"
       id="linearGradient151"
       x1="-414.26172"
       y1="404.80725"
       x2="-414.26172"
       y2="370.31445"
       gradientUnits="userSpaceOnUse" /><linearGradient
       inkscape:collect="always"
       xlink:href="#linearGradient1"
       id="linearGradient2"
       x1="-467.76144"
       y1="234.27906"
       x2="-419.92233"
       y2="234.27906"
       gradientUnits="userSpaceOnUse" /><linearGradient
       id="linearGradient140"
       inkscape:collect="always"><stop
         style="stop-color:#0c468b;stop-opacity:1"
         offset="0"
         id="stop140" /><stop
         style="stop-color:#2b7fce;stop-opacity:1"
         offset="1"
         id="stop141" /></linearGradient></defs><sodipodi:namedview
     id="namedview63"
     pagecolor="#ffffff"
     bordercolor="#000000"
     borderopacity="0.25"
     inkscape:showpageshadow="2"
     inkscape:pageopacity="0.0"
     inkscape:pagecheckerboard="0"
     inkscape:deskcolor="#d1d1d1"
     inkscape:document-units="pt"
     showguides="true"
     inkscape:zoom="0.35355339"
     inkscape:cx="654.78088"
     inkscape:cy="274.35743"
     inkscape:window-width="1219"
     inkscape:window-height="994"
     inkscape:window-x="26"
     inkscape:window-y="23"
     inkscape:window-maximized="0"
     inkscape:current-layer="g157" /><path
     style="opacity:0.603625;fill:none;stroke:#9a0000;stroke-width:5.33333;stroke-linejoin:round;stroke-miterlimit:1.4;stroke-dasharray:none;stroke-opacity:1"
     d=""
     id="path76"
     transform="scale(0.75)" /><path
     style="opacity:0.603625;fill:none;stroke:#9a0000;stroke-width:5.33333;stroke-linejoin:round;stroke-miterlimit:1.4;stroke-dasharray:none;stroke-opacity:1"
     d=""
     id="path77"
     transform="scale(0.75)" /><path
     style="opacity:0.603625;fill:none;stroke:#9a0000;stroke-width:5.33333;stroke-linejoin:round;stroke-miterlimit:1.4;stroke-dasharray:none;stroke-opacity:1"
     d=""
     id="path95"
     transform="scale(0.75)" /><g
     id="g155"
     transform="translate(638.35644,5.145376)"><g
       id="g154"
       transform="translate(13.345396,30.518126)"><g
         id="g156"><g
           id="g158"
           transform="translate(-52.88002,-1.546496)"><g
             id="g157"><path
               style="baseline-shift:baseline;display:inline;overflow:visible;opacity:1;vector-effect:none;fill:url(#linearGradient143);fill-opacity:1;stroke-linejoin:round;stroke-miterlimit:1.4;enable-background:accumulate;stop-color:#000000;stop-opacity:1"
               d="m -439.43262,90.487793 c -7.80877,0 -14.89218,3.162308 -20.01855,8.271973 -5.13094,5.096814 -8.31006,12.139994 -8.31006,19.916014 v 229.54395 2.77441 20.42285 0.74268 c 0,0.0671 -4.7e-4,0.13513 0,0.20215 v 3.8291 c 0,10.81841 8.26827,19.41286 19.31982,22.66406 0.79851,0.26633 1.61077,0.5047 2.43897,0.7002 2.09893,0.49545 4.28749,0.75732 6.53613,0.75732 h 0.44824 c 0.0854,6.2e-4 0.17087,10e-4 0.25635,10e-4 h 218.5708 c 0.0855,0 0.171,-8.4e-4 0.25635,-10e-4 h 0.38232 c 2.02455,0 3.99928,-0.21273 5.90479,-0.6167 0.8759,-0.18569 1.734,-0.41957 2.57812,-0.68408 11.33156,-3.12005 19.87793,-11.82095 19.87793,-22.8208 v -4.77393 c 0,-0.57353 -0.0234,-1.1412 -0.0688,-1.70215 v -41.22802 c 0.0222,-0.45669 0.0337,-0.91631 0.0337,-1.37842 V 118.64209 c 0,-15.54098 -12.69824,-28.154297 -28.29199,-28.154297 z"
               id="path125"
               transform="translate(-13.345396,-30.518126)" /><path
               id="path124"
               style="baseline-shift:baseline;display:inline;overflow:visible;opacity:0.906176;vector-effect:none;fill:url(#linearGradient145);fill-opacity:1;stroke-linejoin:round;stroke-miterlimit:1.4;enable-background:accumulate;stop-color:#000000;stop-opacity:1"
               d="m -199.19092,346.67725 c -4.87502,5.43659 -12.85268,8.38748 -21.21679,8.61914 h -2.13868 -216.21533 c -12.12208,0 -21,7.64031 -21,16.1206 v 2.4126 c 0.66161,8.25029 6.18841,15.02543 13.78858,17.521 2.22254,0.62086 4.64442,0.96386 7.21142,0.96386 h 218.5708 c 2.39724,0 4.66766,-0.30003 6.76758,-0.84521 8.30499,-2.54997 14.23242,-10.17356 14.23242,-19.30957 v -0.74268 c 0,-0.0438 4.8e-4,-0.088 0,-0.13183 z"
               transform="translate(-13.345396,-30.518126)" /><path
               style="baseline-shift:baseline;display:inline;overflow:visible;opacity:1;vector-effect:none;fill:url(#linearGradient141);fill-opacity:1;stroke-width:1.03274;stroke-linejoin:round;stroke-miterlimit:1.4;enable-background:accumulate;stop-color:#000000;stop-opacity:1"
               d="m -433.41132,59.969664 200.54742,3e-6 c 12.33258,0 28.29199,9.626731 28.29199,28.154297 V 294.48089 c -0.0337,11.22538 -19.13484,21.80842 -28.3666,22.03061 -9.23176,0.22219 -200.32407,-0.375 -200.32407,-0.375 -0.0446,-0.0997 -0.0946,-0.19782 -0.14874,-0.29255 z"
               id="rect64"
               sodipodi:nodetypes="cssczccc" /><path
               id="rect144"
               style="opacity:1;fill:url(#linearGradient151);fill-opacity:1;stroke:none;stroke-width:5.72151;stroke-linejoin:round;stroke-miterlimit:1.4;stroke-opacity:1"
               d="m -434.26172,370.31445 h 40 v 44 c -0.071,-0.019 -19.85257,-9.41944 -20,-9.50721 l -20,9.50721 z"
               sodipodi:nodetypes="cccccc"
               transform="translate(-13.345396,-30.518126)" /><path
               id="path148"
               style="baseline-shift:baseline;display:inline;overflow:visible;opacity:0.603625;vector-effect:none;fill:url(#linearGradient2);stroke-linejoin:round;stroke-miterlimit:1.4;enable-background:accumulate;stop-color:#000000;stop-opacity:1;fill-opacity:1"
               d="m -439.43262,90.48779 c -7.80877,0 -14.89218,3.16231 -20.01855,8.27198 -5.13094,5.09681 -8.31006,12.13999 -8.31006,19.91601 v 229.54395 2.77441 20.42285 0.74268 c 0,0.0671 -4.7e-4,0.13513 0,0.20215 l 0.0841,5.70742 c 0.0121,0.13006 1.80704,-11.38416 1.80704,-11.38416 3.05314,-10.7213 12.32301,-18.80124 26.1709,-19.04296 l 19.77686,-0.34521 -0.14356,-256.80912 z"
               sodipodi:nodetypes="scscccsccssccs"
               transform="translate(-13.345396,-30.518126)" /><path
               style="font-weight:bold;font-size:144px;font-family:Carlito;-inkscape-font-specification:'Carlito Bold';fill:#ffffff;stroke-width:8;stroke-linejoin:round;stroke-miterlimit:1.4"
               d="m -311.37225,238.52899 h -14.20313 q -2.46094,0 -3.9375,-1.125 -1.47656,-1.19531 -2.17969,-2.95312 l -5.90625,-18.35157 h -34.38281 l -5.83594,18.28125 q -0.5625,1.54688 -2.17968,2.88282 -1.54688,1.26562 -3.86719,1.26562 h -14.41406 l 34.03125,-93.375 h 18.84375 z m -56.46094,-35.36719 h 26.01562 l -9.49218,-29.53125 q -0.84375,-2.17968 -1.75782,-5.0625 -0.91406,-2.95312 -1.82812,-6.39843 -0.84375,3.44531 -1.75781,6.39843 -0.91407,2.95313 -1.6875,5.13282 z m 112.00781,35.36719 q -2.53125,0 -3.86719,-0.70312 -1.33593,-0.77344 -2.10937,-3.02344 l -1.54688,-4.64063 q -2.67187,2.32032 -5.13281,4.07813 -2.46094,1.75781 -5.13281,2.95312 -2.60156,1.19532 -5.625,1.75782 -2.95313,0.63281 -6.60938,0.63281 -4.5,0 -8.22656,-1.19531 -3.72656,-1.26563 -6.46875,-3.65625 -2.67187,-2.39063 -4.14844,-5.90625 -1.47656,-3.58594 -1.47656,-8.22657 0,-3.86718 1.96875,-7.73437 1.96875,-3.86719 6.67969,-6.96094 4.78125,-3.16406 12.65625,-5.20312 7.94531,-2.10938 19.75781,-2.39063 v -3.72656 q 0,-6.75 -2.8125,-9.91406 -2.8125,-3.16407 -8.08594,-3.16407 -3.9375,0 -6.53906,0.91407 -2.53125,0.91406 -4.5,2.03906 -1.96875,1.05469 -3.65625,1.96875 -1.6875,0.91406 -3.79687,0.91406 -1.82813,0 -3.16407,-0.91406 -1.26562,-0.98438 -2.03906,-2.32031 l -3.23437,-5.625 q 6.04687,-5.625 13.35937,-8.36719 7.3125,-2.74219 15.82031,-2.74219 6.11719,0 10.96875,2.03906 4.85157,1.96875 8.22657,5.625 3.375,3.58594 5.13281,8.57813 1.75781,4.99219 1.75781,10.96875 v 43.94531 z m -24.46875,-11.10937 q 4.78125,0 8.22656,-1.6875 3.51563,-1.75782 6.96094,-5.34375 v -11.25 q -6.96094,0.28125 -11.60156,1.19531 -4.57031,0.84375 -7.3125,2.25 -2.74219,1.33594 -3.9375,3.16406 -1.125,1.82813 -1.125,3.9375 0,4.21875 2.32031,5.97656 2.39063,1.75782 6.46875,1.75782 z"
               id="text153"
               aria-label="Aa" /></g></g></g><text
         xml:space="preserve"
         style="font-style:normal;font-variant:normal;font-weight:bold;font-stretch:normal;font-size:144px;font-family:'Gentium Book Plus';-inkscape-font-specification:'Gentium Book Plus Bold';writing-mode:lr-tb;direction:ltr;opacity:1;fill:#ffffff;fill-opacity:1;stroke:none;stroke-width:8.00002;stroke-linejoin:round;stroke-miterlimit:1.4;stroke-dasharray:none;stroke-opacity:1"
         x="-303.33783"
         y="321.77347"
         id="text154"><tspan
           sodipodi:role="line"
           id="tspan154"
           style="font-style:normal;font-variant:normal;font-weight:bold;font-stretch:normal;font-size:144px;font-family:Carlito;-inkscape-font-specification:'Carlito Bold';stroke-width:8"
           x="-303.33783"
           y="321.77347" /></text></g></g></svg>
