<?xml version="1.0" encoding="UTF-8" standalone="no"?>
<svg
   viewBox="0 0 128 128"
   style="display:inline;enable-background:new"
   version="1.0"
   id="svg11300"
   height="128"
   width="128"
   sodipodi:docname="io.github.fastrizwaan.diction7.svg"
   inkscape:version="1.4.3 (0d15f75042, 2025-12-25)"
   xml:space="preserve"
   xmlns:inkscape="http://www.inkscape.org/namespaces/inkscape"
   xmlns:sodipodi="http://sodipodi.sourceforge.net/DTD/sodipodi-0.dtd"
   xmlns:xlink="http://www.w3.org/1999/xlink"
   xmlns="http://www.w3.org/2000/svg"
   xmlns:svg="http://www.w3.org/2000/svg"
   xmlns:rdf="http://www.w3.org/1999/02/22-rdf-syntax-ns#"
   xmlns:cc="http://creativecommons.org/ns#"
   xmlns:dc="http://purl.org/dc/elements/1.1/"><sodipodi:namedview
     id="namedview1"
     pagecolor="#ffffff"
     bordercolor="#000000"
     borderopacity="0.25"
     inkscape:showpageshadow="2"
     inkscape:pageopacity="0.0"
     inkscape:pagecheckerboard="0"
     inkscape:deskcolor="#d1d1d1"
     inkscape:zoom="1"
     inkscape:cx="75.5"
     inkscape:cy="63.5"
     inkscape:window-width="2560"
     inkscape:window-height="1371"
     inkscape:window-x="0"
     inkscape:window-y="0"
     inkscape:window-maximized="1"
     inkscape:current-layer="g9" /><title
     id="title4162">Adwaita Icon Template</title><defs
     id="defs3"><linearGradient
       id="linearGradient20"
       inkscape:collect="always"><stop
         style="stop-color:#e85115;stop-opacity:1"
         offset="0"
         id="stop21" /><stop
         style="stop-color:#ed333b;stop-opacity:1"
         offset="1"
         id="stop22" /></linearGradient><linearGradient
       id="linearGradient914"><stop
         id="stop908"
         offset="0"
         style="stop-color:#f6f5f4;stop-opacity:1" /><stop
         style="stop-color:#f6f5f4;stop-opacity:1"
         offset="0.5"
         id="stop910" /><stop
         id="stop912"
         offset="1"
         style="stop-color:#c0bfbc;stop-opacity:1" /></linearGradient><linearGradient
       gradientTransform="translate(-640,640)"
       gradientUnits="userSpaceOnUse"
       y2="120"
       x2="416"
       y1="120"
       x1="384"
       id="linearGradient1053-6"
       xlink:href="#linearGradient914" /><linearGradient
       inkscape:collect="always"
       xlink:href="#linearGradient150"
       id="linearGradient151"
       x1="-414.26172"
       y1="404.80725"
       x2="-414.26172"
       y2="370.31445"
       gradientUnits="userSpaceOnUse" /><linearGradient
       id="linearGradient150"
       inkscape:collect="always"><stop
         style="stop-color:#f3532d;stop-opacity:1"
         offset="0"
         id="stop150" /><stop
         style="stop-color:#be230d;stop-opacity:1"
         offset="1"
         id="stop151" /></linearGradient><linearGradient
       inkscape:collect="always"
       xlink:href="#linearGradient20"
       id="linearGradient22"
       x1="-453.19527"
       y1="188.75992"
       x2="-204.53681"
       y2="188.75992"
       gradientUnits="userSpaceOnUse" /><linearGradient
       inkscape:collect="always"
       xlink:href="#linearGradient150"
       id="linearGradient24"
       x1="-487.7919"
       y1="214.24858"
       x2="-397.63614"
       y2="218.43832"
       gradientUnits="userSpaceOnUse" /><linearGradient
       id="linearGradient144"
       inkscape:collect="always"><stop
         style="stop-color:#ede4d7;stop-opacity:1;"
         offset="0"
         id="stop144" /><stop
         style="stop-color:#b4ada5;stop-opacity:1"
         offset="1"
         id="stop145" /></linearGradient><linearGradient
       inkscape:collect="always"
       xlink:href="#linearGradient144"
       id="linearGradient27"
       x1="-332.32648"
       y1="395.74268"
       x2="-330.65405"
       y2="355.29639"
       gradientUnits="userSpaceOnUse" /><linearGradient
       inkscape:collect="always"
       xlink:href="#linearGradient144"
       id="linearGradient29"
       x1="-383.9809"
       y1="198.13983"
       x2="-384.27466"
       y2="129.61749"
       gradientUnits="userSpaceOnUse" /></defs><metadata
     id="metadata4"><rdf:RDF><cc:Work
         rdf:about=""><dc:format>image/svg+xml</dc:format><dc:type
           rdf:resource="http://purl.org/dc/dcmitype/StillImage" /><dc:creator><cc:Agent><dc:title>GNOME Design Team</dc:title></cc:Agent></dc:creator><dc:source /><cc:license
           rdf:resource="http://creativecommons.org/licenses/by-sa/4.0/" /><dc:title>Adwaita Icon Template</dc:title><dc:subject><rdf:Bag /></dc:subject><dc:date /><dc:rights><cc:Agent><dc:title /></cc:Agent></dc:rights><dc:publisher><cc:Agent><dc:title /></cc:Agent></dc:publisher><dc:identifier /><dc:relation /><dc:language /><dc:coverage /><dc:description /><dc:contributor><cc:Agent><dc:title /></cc:Agent></dc:contributor></cc:Work><cc:License
         rdf:about="http://creativecommons.org/licenses/by-sa/4.0/"><cc:permits
           rdf:resource="http://creativecommons.org/ns#Reproduction" /><cc:permits
           rdf:resource="http://creativecommons.org/ns#Distribution" /><cc:requires
           rdf:resource="http://creativecommons.org/ns#Notice" /><cc:requires
           rdf:resource="http://creativecommons.org/ns#Attribution" /><cc:permits
           rdf:resource="http://creativecommons.org/ns#DerivativeWorks" /><cc:requires
           rdf:resource="http://creativecommons.org/ns#ShareAlike" /></cc:License></rdf:RDF></metadata><g
     transform="translate(0,-172)"
     style="display:inline"
     id="layer1"><g
       style="display:inline"
       id="layer9"><g
         transform="matrix(0.25,0,0,0.25,-5.62e-5,225.125)"
         id="g925-5"
         style="display:inline;enable-background:new"><g
           style="display:inline;enable-background:new"
           id="g995-3"
           transform="translate(640,-640.5)"><path
             id="rect954-3-8-5"
             d="m -544,540 v 368 h 288 c 17.728,0 32,-14.272 32,-32 V 572 c 0,-17.728 -14.272,-32 -32,-32 z"
             style="display:inline;opacity:1;fill:#26a269;fill-opacity:1;stroke:none;stroke-width:24;stroke-linecap:butt;stroke-linejoin:miter;stroke-miterlimit:4;stroke-dasharray:none;stroke-dashoffset:0;stroke-opacity:1;marker:none;marker-start:none;marker-mid:none;marker-end:none;paint-order:normal;enable-background:new" /><path
             id="rect954-3-6-7-6"
             d="m -536,620 v 280 h 280 c 17.728,0 32,-14.272 32,-32 V 652 c 0,-17.728 -14.272,-32 -32,-32 z"
             style="display:inline;opacity:1;fill:url(#linearGradient1053-6);fill-opacity:1;stroke:none;stroke-width:24;stroke-linecap:butt;stroke-linejoin:miter;stroke-miterlimit:4;stroke-dasharray:none;stroke-dashoffset:0;stroke-opacity:1;marker:none;marker-start:none;marker-mid:none;marker-end:none;paint-order:normal;enable-background:new" /><path
             id="rect954-3-2-92-2"
             d="m -544,492 v 264 h 288 c 17.728,0 32,-14.272 32,-32 V 524 c 0,-17.728 -14.272,-32 -32,-32 z"
             style="display:inline;opacity:1;fill:#26a269;fill-opacity:1;stroke:none;stroke-width:24;stroke-linecap:butt;stroke-linejoin:miter;stroke-miterlimit:4;stroke-dasharray:none;stroke-dashoffset:0;stroke-opacity:1;marker:none;marker-start:none;marker-mid:none;marker-end:none;paint-order:normal;enable-background:new" /><path
             id="rect954-3-2-9-02-9"
             d="m -544,460 v 288 h 288 c 17.728,0 32,-14.272 32,-32 V 492 c 0,-17.728 -14.272,-32 -32,-32 z"
             style="display:inline;opacity:1;fill:#2ec27e;fill-opacity:1;stroke:none;stroke-width:23.99999809;stroke-linecap:round;stroke-linejoin:miter;stroke-miterlimit:4;stroke-dasharray:none;stroke-dashoffset:0;stroke-opacity:1;marker:none;marker-start:none;marker-mid:none;marker-end:none;paint-order:normal;enable-background:new" /><rect
             y="508.5"
             x="-544"
             height="192"
             width="320.00003"
             id="rect901-7-1"
             style="display:inline;opacity:1;fill:#57e389;fill-opacity:1;stroke:none;stroke-width:1.99999988;stroke-linejoin:round;stroke-miterlimit:4;stroke-dasharray:none;stroke-opacity:1;enable-background:new" /><path
             style="opacity:0.3;fill:#ffffff;fill-opacity:1;stroke:none;stroke-width:24;stroke-linecap:butt;stroke-linejoin:miter;stroke-miterlimit:4;stroke-dasharray:none;stroke-dashoffset:0;stroke-opacity:1;marker:none;marker-start:none;marker-mid:none;marker-end:none;paint-order:normal"
             d="m -536,460 h 8 v 288 h -8 z"
             id="rect1366-2" /></g><path
           id="path913-3-9"
           style="display:inline;opacity:0.1;fill:#000000;stroke:#000000;stroke-width:8;stroke-linecap:round;stroke-linejoin:miter;stroke-miterlimit:4;stroke-dasharray:none;stroke-opacity:1;enable-background:new"
           d="m 236.00022,223.5 h 104 m -128,-16 h 65.5 m -33.5,-16 h 128 m -152,-16 h 128" /><path
           style="display:inline;fill:#ed333b;fill-opacity:1;stroke:none;stroke-width:1px;stroke-linecap:butt;stroke-linejoin:miter;stroke-opacity:1;enable-background:new"
           d="m 128,140 h 64 v 80 L 160,191.9996 128,220 Z"
           id="path903-5-3" /></g><g
         transform="translate(1)"
         id="text897-5"
         style="font-style:normal;font-variant:normal;font-weight:bold;font-stretch:normal;font-size:40px;line-height:1.25;font-family:'Linux Libertine O';-inkscape-font-specification:'Linux Libertine O Bold';text-align:center;letter-spacing:0px;word-spacing:0px;text-anchor:middle;display:inline;fill:#1d7d51;fill-opacity:1;stroke:none;stroke-width:0.25;enable-background:new"
         aria-label="Aa"><path
           id="path928"
           style="fill:#1f8455;stroke-width:0.25;fill-opacity:1"
           d="m 48.969683,216.40501 c -0.88,0 -1.16,-0.12 -1.04,-0.52 l 3.56,-8.96 h 0.28 l 3.28,9.48 z m -4.32,8.16 2.12,-5.56 c 0.2,-0.52 0.44,-0.68 1.4,-0.68 h 7.6 l 2.24,6.52 c 0.56,1.64 -1.08,1.48 -2.96,1.6 -0.24,0.24 -0.24,1.12 0,1.36 1.48,-0.04 5.28,-0.08 6.84,-0.08 1.64,0 3.88,0.04 5.36,0.08 0.24,-0.24 0.24,-1.12 0,-1.36 -1.56,-0.12 -2.88,-0.12 -3.6,-2.16 l -8.24,-22.88 c -0.6,0.36 -3,1.76 -4.44,1.76 l -8.64,20.48 c -1.04,2.48 -2.28,2.68 -4,2.8 -0.24,0.24 -0.24,1.12 0,1.36 1.48,-0.04 2.2,-0.08 3.76,-0.08 1.64,0 3.84,0.04 5.32,0.08 0.24,-0.24 0.24,-1.12 0,-1.36 -1.52,-0.08 -3.4,-0.24 -2.76,-1.88 z" /><path
           id="path930"
           style="fill:#1f8455;stroke-width:0.25;fill-opacity:1"
           d="m 78.990308,225.80501 c 0.28,1.6 1.36,2.32 3.12,2.32 2.2,0 3.76,-0.84 5.24,-2.24 -0.12,-0.44 -0.28,-0.76 -0.72,-1.12 -0.52,0.4 -0.92,0.56 -1.68,0.56 -0.88,0 -1.12,-0.72 -1.12,-2.68 l 0.08,-5.76 c 0,-5.76 -3.56,-6.92 -6.84,-6.92 -2.92,0 -7.44,1.68 -7.44,4.32 0,1.16 0.48,2.04 2.08,2.04 1.4,0 2.48,-0.88 2.48,-1.88 0,-0.52 -0.28,-1.2 -0.2,-1.88 0.08,-0.44 0.36,-0.92 1.72,-0.92 1.68,0 3.08,0.72 3.08,5.8 l -2.68,0.84 c -4.24,1.32 -7.16,2.48 -7.16,5.64 0,2.76 1.52,4.2 5,4.2 1.16,0 3.48,-1.28 4.8,-2.32 z m -0.2,-6.8 v 5.28 c -1,0.8 -2,1.44 -2.72,1.44 -1.72,0 -2.32,-1.16 -2.32,-2.4 0,-1.48 0.12,-2.68 2.96,-3.64 z" /></g></g></g><g
     id="g7"
     transform="matrix(0.36194858,0,0,0.36194858,188.08387,-13.572438)"><path
       style="baseline-shift:baseline;display:inline;overflow:visible;opacity:1;vector-effect:none;fill:#ed333b;fill-opacity:1;stroke-linejoin:round;stroke-miterlimit:1.4;enable-background:accumulate;stop-color:#000000;stop-opacity:1"
       d="m -439.43262,90.487793 c -7.80877,0 -14.89218,3.162308 -20.01855,8.271973 -5.13094,5.096814 -8.31006,12.139994 -8.31006,19.916014 v 229.54395 2.77441 20.42285 0.74268 c 0,0.0671 -4.7e-4,0.13513 0,0.20215 v 3.8291 c 0,10.81841 8.26827,19.41286 19.31982,22.66406 0.79851,0.26633 1.61077,0.5047 2.43897,0.7002 2.09893,0.49545 4.28749,0.75732 6.53613,0.75732 h 0.44824 c 0.0854,6.2e-4 0.17087,10e-4 0.25635,10e-4 h 218.5708 c 0.0855,0 0.171,-8.4e-4 0.25635,-10e-4 h 0.38232 c 2.02455,0 3.99928,-0.21273 5.90479,-0.6167 0.8759,-0.18569 1.734,-0.41957 2.57812,-0.68408 11.33156,-3.12005 19.87793,-11.82095 19.87793,-22.8208 v -4.77393 c 0,-0.57353 -0.0234,-1.1412 -0.0688,-1.70215 v -41.22802 c 0.0222,-0.45669 0.0337,-0.91631 0.0337,-1.37842 V 118.64209 c 0,-15.54098 -12.69824,-28.154297 -28.29199,-28.154297 z"
       id="path125"
       transform="translate(-13.345396,-30.518126)" /><path
       id="path148"
       style="baseline-shift:baseline;display:inline;overflow:visible;opacity:0.603625;vector-effect:none;fill:url(#linearGradient24);fill-opacity:1;stroke-linejoin:round;stroke-miterlimit:1.4;enable-background:accumulate;stop-color:#000000;stop-opacity:1"
       d="m -439.43262,90.48779 c -7.80877,0 -14.89218,3.16231 -20.01855,8.27198 -5.13094,5.09681 -8.31006,12.13999 -8.31006,19.91601 v 229.54395 2.77441 20.42285 0.74268 c 0,0.0671 -4.7e-4,0.13513 0,0.20215 l 0.0841,5.70742 c 0.0121,0.13006 1.80704,-11.38416 1.80704,-11.38416 3.05314,-10.7213 12.32301,-18.80124 26.1709,-19.04296 l 19.77686,-0.34521 -0.14356,-256.80912 z"
       sodipodi:nodetypes="scscccsccssccs"
       transform="translate(-13.345396,-30.518126)" /><path
       id="path124"
       style="baseline-shift:baseline;display:inline;overflow:visible;opacity:1;vector-effect:none;fill:url(#linearGradient27);fill-opacity:1;stroke-linejoin:round;stroke-miterlimit:1.4;enable-background:accumulate;stop-color:#000000;stop-opacity:1"
       d="m -199.19092,346.67725 c -4.87502,5.43659 -12.85268,8.38748 -21.21679,8.61914 h -2.13868 -216.21533 c -12.12208,0 -21,7.64031 -21,16.1206 v 2.4126 c 0.66161,8.25029 6.18841,15.02543 13.78858,17.521 2.22254,0.62086 4.64442,0.96386 7.21142,0.96386 h 218.5708 c 2.39724,0 4.66766,-0.30003 6.76758,-0.84521 8.30499,-2.54997 14.23242,-10.17356 14.23242,-19.30957 v -0.74268 c 0,-0.0438 4.8e-4,-0.088 0,-0.13183 z"
       transform="translate(-13.345396,-30.518126)" /><path
       style="baseline-shift:baseline;display:inline;overflow:visible;opacity:0.991833;vector-effect:none;fill:url(#linearGradient22);fill-opacity:1;stroke-width:1.04154;stroke-linejoin:round;stroke-miterlimit:1.4;enable-background:accumulate;stop-color:#000000;stop-opacity:1"
       d="m -453.19527,59.969664 h 219.99272 c 12.4955,0 28.66574,9.66384 28.66574,28.26283 V 295.3849 c -0.0341,11.26866 -19.38762,21.89249 -28.74133,22.11554 -9.35372,0.22305 -219.76643,-0.37645 -219.76643,-0.37645 -0.0452,-0.10008 -0.0958,-0.19858 -0.1507,-0.29367 z"
       id="rect64"
       sodipodi:nodetypes="cssczccc" /><path
       id="rect144"
       style="opacity:1;fill:url(#linearGradient151);fill-opacity:1;stroke:none;stroke-width:5.72151;stroke-linejoin:round;stroke-miterlimit:1.4;stroke-opacity:1"
       d="m -434.26172,370.31445 h 40 v 44 c -0.071,-0.019 -19.85257,-9.41944 -20,-9.50721 l -20,9.50721 z"
       sodipodi:nodetypes="cccccc"
       transform="translate(-13.345396,-30.518126)" /><g
       id="g9"
       transform="matrix(1.1659104,0,0,1.1659104,111.06976,-2.7591136)"><path
         style="font-weight:bold;font-size:105.673px;font-family:Carlito;-inkscape-font-specification:'Carlito Bold';opacity:0.991833;fill:url(#linearGradient29);stroke-width:5.87069;stroke-linejoin:round;stroke-miterlimit:1.4"
         d="m -373.55807,198.13983 h -10.42282 q -1.80594,0 -2.8895,-0.82557 -1.08356,-0.87717 -1.59954,-2.16712 l -4.33424,-13.46712 h -25.2315 l -4.28264,13.41552 q -0.41279,1.13516 -1.59954,2.11552 -1.13516,0.92877 -2.8379,0.92877 h -10.57762 l 24.9735,-68.52233 h 13.8283 z m -41.43331,-25.95386 h 19.09132 l -6.96575,-21.67122 q -0.61918,-1.59955 -1.28996,-3.71507 -0.67077,-2.16712 -1.34155,-4.69543 -0.61918,2.52831 -1.28995,4.69543 -0.67078,2.16712 -1.23836,3.76666 z m 82.19584,25.95386 q -1.85753,0 -2.83789,-0.51598 -0.98037,-0.56758 -1.54795,-2.21872 l -1.13516,-3.40548 q -1.96073,1.70274 -3.76666,2.99269 -1.80594,1.28996 -3.76667,2.16713 -1.90913,0.87717 -4.12785,1.28995 -2.16712,0.46438 -4.85022,0.46438 -3.30228,0 -6.03698,-0.87716 -2.73471,-0.92877 -4.74703,-2.68311 -1.96073,-1.75434 -3.04429,-4.33424 -1.08357,-2.63151 -1.08357,-6.03698 0,-2.8379 1.44475,-5.6758 1.44475,-2.8379 4.90183,-5.10822 3.50867,-2.32191 9.28766,-3.81826 5.83059,-1.54794 14.49908,-1.75434 v -2.7347 q 0,-4.95342 -2.06393,-7.27534 -2.06392,-2.32191 -5.93378,-2.32191 -2.8895,0 -4.79863,0.67077 -1.85753,0.67078 -3.30228,1.49635 -1.44475,0.77397 -2.6831,1.44475 -1.23836,0.67077 -2.7863,0.67077 -1.34156,0 -2.32192,-0.67077 -0.92877,-0.72238 -1.49635,-1.70274 l -2.37351,-4.12785 q 4.43744,-4.12785 9.80365,-6.14018 5.3662,-2.01233 11.60958,-2.01233 4.48904,0 8.04931,1.49635 3.56027,1.44475 6.03698,4.12785 2.47671,2.6315 3.76667,6.29497 1.28995,3.66347 1.28995,8.04931 v 32.24884 z m -17.95615,-8.15251 q 3.50867,0 6.03698,-1.23835 2.57991,-1.28995 5.10822,-3.92146 v -8.2557 q -5.10822,0.20639 -8.51369,0.87717 -3.35388,0.61917 -5.36621,1.65114 -2.01233,0.98036 -2.8895,2.32191 -0.82557,1.34155 -0.82557,2.8895 0,3.09589 1.70274,4.38584 1.75434,1.28995 4.74703,1.28995 z"
         id="text8"
         aria-label="Aa" /></g></g></svg>
